<svg xmlns="http://www.w3.org/2000/svg" viewBox="0 0 829.9 445"><defs><style>.a{fill:#98bccc;}</style></defs><title>letterMail4-7</title><path class="a" d="M689.4,358a.9.9,0,0,1-.1-1.3l2.1-3a17.2,17.2,0,0,0,1.1-1.9,34.2,34.2,0,0,1,3.1-4.9l3.3-4.6a10.9,10.9,0,0,0,1.1-1.9,1.7,1.7,0,0,1,1.8-1.1h4.7l7.4.2c1.5.1,3,.1,4.5.3a37.4,37.4,0,0,0,5,.1,19.1,19.1,0,0,1,3.9,0c.4.1.9-.1,1.4-.1s3.6-.1,5.4.2a7,7,0,0,0,3.8-.2c.5-.2.9.2,1.3.2l8.3.2,9.2.2h2.8l6.5.2H771l4.9.2c.4,0,.8.4,1.2.3a21.3,21.3,0,0,1,3.6-.1,40.8,40.8,0,0,1,6.3-.1c2.3.3,4.6-.1,6.9.2l1.3.2c0,1.3,0,2.5-.1,3.7s-.1,4.2-.3,6.2,0,2.8-.1,4.3,0,2.9-.1,4.4a47.5,47.5,0,0,0,.3,5.4,15,15,0,0,1,0,4,29.1,29.1,0,0,0-.3,6c0,1.3-.3,1.4-1.6,1.3a18.8,18.8,0,0,0-3.7.4c-.2,0-.3.2-.5.4s-.9-.6-1.5-.6a6.7,6.7,0,0,1-3.2-.4h-.5a7,7,0,0,1-3.5.1,30,30,0,0,1-5-.3c-.9-.2-1.7.4-2.6.1a6.3,6.3,0,0,0-1.9-.2h-4.6l-3.3-.3h-2.1c-1.9.1-3.8.4-5.7.4s-5-.2-7.5-.3h-.2c-1.4.3-2.8-.1-4.2-.2l-5.2-.5h-.5c-1.4.7-3,.2-4.4.6h-.4c-.9-.6-1.8-.2-2.7-.1h-.3c-1.7-.6-3.5-.1-5.1-.5a24.7,24.7,0,0,0-3.6-.4,1.7,1.7,0,0,0-1,.1,4.3,4.3,0,0,1-2.8.5h-2.5l-6.8-.3h-4l-.9.2h-1a4.9,4.9,0,0,0-1.1-.2,1.3,1.3,0,0,1-1.4-.8c-.9-1.7-1.9-3.4-2.9-5.1s-1.8-2.8-2.7-4.2l-1.5-2.2-1.4-2.3c0-.1,0-.2.1-.3h0l-1.3-1.7a3.1,3.1,0,0,1-.2-.9Zm96.1-12.5V345h0v.5h0Zm-86.9,12.2v.4h.1v-1.2h-.2v.8Zm71.4,5.5a2.9,2.9,0,0,0-2.8-.4c-.1,0-.1.2-.2.3l.8.4a8.6,8.6,0,0,1,.2,1.5c-.1,1.5.8,3.2-1.1,4.4.7.8,1.6.3,2.4.6s.6-.2,1-.4l-.5-.4c-1.2-.6-1.2-.8-1-2a11.2,11.2,0,0,0,.1-1.4c0-.2.1-.5.2-.9,1.6,1.7,2.7,3.6,4.3,5.4a4.9,4.9,0,0,0,.3-1c0-1.5,0-3,0-4.5s.1-1.3.9-1.5h.5l-1-.9v-.6l-.4.6-1.8.6a5,5,0,0,1,1,1,.9.9,0,0,1-.3,1.3c.7.6.3,1.2.1,1.9a22.9,22.9,0,0,1-2.8-3.8v-.2h0ZM754.3,348v.2c1.1.1,1.2.9,1.3,1.7a3,3,0,0,1,0,.6c-.1,1.4-.2,2.9-.2,4.3a1.4,1.4,0,0,1-1,1.4l-.7.4a5.3,5.3,0,0,0,3.7.1c-.3-.5-.9-.9-1-1.4a29.7,29.7,0,0,1-.1-3.7c0-.1.2-.3.3-.6,1.1,1.9,1.1,4,1.8,5.9.6,0,.9-.3,1-.7l.2-1.4a7.7,7.7,0,0,1,1.4-3.5,18.4,18.4,0,0,1-.1,4.8c-.4.3-1,.1-1.2.8a12.1,12.1,0,0,0,4.3,0c-.9-.4-1.3-.8-1.3-1.6s.2-4.2.3-6.3l.9-.5c-.6-.8-1.3-.2-1.9-.3a1.1,1.1,0,0,0-.8.1,1.1,1.1,0,0,0-.3.6l-.7,2.3-.8,2.4a7.4,7.4,0,0,1-.6-1.1c-.3-1.2-.7-2.5-1-3.7a.9.9,0,0,0-.9-.8Zm-49.4,7.5.7.3h5.1a4.3,4.3,0,0,0,1.9-.6,2,2,0,0,0,.1-3.4l-.9-.6.9-.9a1.7,1.7,0,0,0-.4-2.9,7,7,0,0,0-2.3-.6h-3.6c-.5,0-1.2-.1-1.5.7l1.4.5v1.5h-.9l1.1.4v4.9C705.7,355,705,354.8,704.8,355.6Zm37.8-7c-.1.7-.1,1.4-.2,2.1s0,.6,0,.9.1,2.3,0,3.4a1.1,1.1,0,0,1-.7,1.1l-.6.3a9,9,0,0,0,4,.3c0-.9-1.1-1.1-.9-1.9s.3-1.4.4-2.1c2.3,0,2.9.7,2.7,2.2a3.4,3.4,0,0,0,0,.9,1.3,1.3,0,0,0,.2.7,1.7,1.7,0,0,0,2.8-.7c0-.1-.1-.2-.1-.3l-.9.5c-.7-1.2-.1-2.7-1.1-3.7l1-.7a1.8,1.8,0,0,0-.7-3.3l-2.1-.4h-4a1.2,1.2,0,0,0-1.2.5Zm6.1,14,.5.3a1.7,1.7,0,0,1,1.3,1.2l.6,1c.1.2.2.4.2.5s.7,2.4,1,3.6.3.3.4.5l.2-.3,1.5-3.6a5.3,5.3,0,0,1,1.8-2.4c.7-.5,1.4-.2,1.5.7s0,2.2,0,3.3-.1,1.5-1.1,1.8.4.5.6.5,2.1.3,3.2-.1l-.4-.5a1.4,1.4,0,0,1-.7-1.6l.2-1.4a3.6,3.6,0,0,0,.1-1.3,1.6,1.6,0,0,1,.8-2s0-.1,0-.3l-1.7-.2-5.4.2c.9.7,1.6,1.3,1.1,2.2s-.3,1.7-1.3,2a15.5,15.5,0,0,0-.7-2.1c-.4-.8-.5-1.4.5-1.9A6.9,6.9,0,0,0,748.7,362.6Zm22.4-6.6-1,.5-.6.5a6.2,6.2,0,0,0,4.2.2,17.2,17.2,0,0,1-1.1-1.6c-.5-1-1-2-1.5-3V352c-.3-1-.6-1.9-1-2.9a4.9,4.9,0,0,0-.8-1L768,351c-.3.6-.5,1.2-1.4,1.4s.6.5.4.8-.9,2.6-2.2,3.2a.6.6,0,0,0-.2.5.6.6,0,0,0,.4.3h2.8c.6,0,.7-.5.3-.9l-.4-.4c-.4-.5-.2-1.4.3-1.5a4.6,4.6,0,0,1,2.1.1C770.5,354.8,770.7,355.4,771.2,356Zm-40.3-8.7-.7,1.3c-.6,1.3-1.1,2.7-1.8,4s-.9,2.2-2.1,2.8-.4.5-.3.5a.9.9,0,0,0,.6.4h1.9c.4,0,1,0,1.2-.3s-.4-.7-.7-1.1l-.2-.3.3-1c1.9-.5,2.8-.1,3.4,1.5l-1.6.7c1.2,1,2.4.3,3.5.4s.8.1,1.1-.4a5.5,5.5,0,0,1-1.9-2.9l-1.8-4.7A6.7,6.7,0,0,0,730.9,347.3Zm-10.7,8.3-.8-.2c-.6,0-.8-.4-.8-.9a8.9,8.9,0,0,1,.2-1.2l.2-1c0-.1-.1-.3,0-.4s1.2-2.4,2.4-3.1a9.8,9.8,0,0,0,1.3-1.1c-.2-.2-.3-.4-.5-.4a7.9,7.9,0,0,0-3.3.3l1,1.1-1,2c-.3.6-.8.6-1.1.1l-1.2-2.4.4-.3.5-.7-.8-.4h-.6c-.8-.1-1.6.4-2.4.2s-.4.3-.5.5.2.4.4.4a1.7,1.7,0,0,1,1.3.9l2,3.2a1.6,1.6,0,0,1,.2.8c0,.5-.1.9-.1,1.4s-.1.9-.9,1.1l-.7.4v.2a18.5,18.5,0,0,0,4.2.1C719.8,356.1,719.9,355.9,720.2,355.6Zm66.3-2.3-.2.5a4.7,4.7,0,0,1-1.9,2.6c-.4.3-.9.6-1.3.2a1.6,1.6,0,0,1-.4-1c0-.7,0-1.4,0-2.1s0-1.8,0-2.7.1-1.2.9-1.2.3-.3.5-.5a8.7,8.7,0,0,0-3.6-.4c-.2,0-.4.2-.8.4l1.2.7c0,.3,0,.7,0,1.1s-.2,2.8-.2,4.2-.2,1.5-1.2,1.6v.2c.1.7.6.7,1.1.7l5.3.2a.9.9,0,0,0,1-.9c.1-.9.2-1.7.3-2.6A.9.9,0,0,0,786.5,353.3ZM735.1,369v-.3l-.4-.3a2,2,0,0,1-.5-2.1c.2-.9.9-.6,1.4-.6h.1c.8-.1,1,.1,1.1.9s0,1.1,0,1.6a1.2,1.2,0,0,0,1.4,1c.7-.1.9-.3,1-1.1s-.8-.1-1-.8l-.4-1.9c1.7-1.7,1.7-1.7.4-3.4-.7.2-1.4-.3-2.1.1a2.3,2.3,0,0,1,1.1,2.3c-.1.4-.6.7-1.5.8s-1-.9-1.3-1.4.7-1.1,1.2-1.7c-1.1-.4-3.2-.4-3.3.1l1,.3v5.8l-1,.4v.2Zm44.1-20.3c-1.7-.6-3.8-.5-4.7.2l.6.5a.9.9,0,0,1,.6.9c-.2,1.6.5,3.3-.3,4.8a.3.3,0,0,0,0,.2c.6.7,0,1-.5,1.3l-.3.4c.3.2.5.4.7.4h3.5c0-.1.1-.2.1-.3s-.1-.3-.1-.3-1-1.2-1.1-2-.1-2.2,0-3.3.1-1.8,1.2-2.2S779.1,349,779.3,348.8Zm-43.4-.7c1.3.5,1.5.7,1.5,1.8s0,1.3,0,1.9,0,1.9-.1,2.8a1.9,1.9,0,0,1-.6,1.1c-.2.2-.5.4-.3.7a1.1,1.1,0,0,0,.8.3H740a.6.6,0,0,0,.3-.4c0-.1-.1-.3-.2-.4s-.9-1-.9-1.6.1-2.8,0-4.1.1-1.4,1.1-1.6.3-.4.5-.7c-1.4-.6-2.8-.3-4.1-.3S736.2,347.9,735.8,348.1Zm-8.8,20.7c-.9-1.3-1-1.6-.7-2a2.1,2.1,0,0,1,1.9-.5c.9.3.4,1.1.7,1.6l-.9.7a5.5,5.5,0,0,0,3.5.2,6.3,6.3,0,0,1-.9-1.1c-.6-1.2-.9-2.6-1.6-3.8a1.5,1.5,0,0,1-.1-.5l1-.3-1.2-.2-1-1.4-.6.9-1.6,3.4a4.1,4.1,0,0,1-1.7,2.3c-.1,0-.1.3-.2.6S725.9,369.1,727.1,368.8Zm19.4.3v.3a9.4,9.4,0,0,0,3.3-.2c-1.2-1-1.5-2.4-2-3.7l-1-2.5c-.1-.3-.2-.8-.8-.7s-1,.8-1,1.3a13.9,13.9,0,0,1-1.2,3.2,3,3,0,0,1-1.5,1.9c-.1,0-.1.3-.2.6a12.5,12.5,0,0,0,3.3.1l-1.3-1.4c.4-1.1,1.3-.7,1.9-.7s1.1.6,1.3,1.3Zm-27.6-6.8c0,.9,0,1.8-.1,2.7a13.3,13.3,0,0,0,0,1.4c.1.9.1,1.7-.9,2.3a6.6,6.6,0,0,0,3.6-.2l-1-.5v-2.4c.5,0,.8-.1,1.1,0a2,2,0,0,0,2.3-.5,2.3,2.3,0,0,0,.8-1.2,1.9,1.9,0,0,0-1.8-2.2h-4.6v.2Zm48.1,3.2c0-.3,0-.6,0-.9a.9.9,0,0,0-.7-1l-.9-.5a2.9,2.9,0,0,0-3.2-.1,3.9,3.9,0,0,0-.9,5.6,2.9,2.9,0,0,0,4,.8C766.8,368.4,766.9,367,767,365.5Zm-68.3-9.3c-.3-.1-.6-.3-.8-.2s-.2.4-.5.9Zm1.7-4.5v-.3l-.7.3v.3Zm-6.8,4.3-.2-.2-.4.5h.1Zm42.3-1.2v-.3l-.6-.3v.2Zm-39,8.8h.2l-.2-.6h-.2Zm97.3,1.9H794l-.2.2h.3Zm-96.2-4.9h0Zm53.2-19.5c0,.1-.1.3-.1.3h.3v-.2Zm16.1,1.8h.2v-.4h-.2Zm-73.7,18.2v-.2h-.1s0,.1,0,.1Zm62.6,11.5h0ZM786,344.1h0Zm3.7.7v-.2h-.2l.2.3Zm-61.7-4h0Zm-26.6,30.1h0Zm64.4-17.8h0Zm-63.7,20.6h0Zm-3.7-12.1h0Zm-7.3-4.9v.2h0Zm5.3-8.5h-.1v.2h.1Zm90.4-1.2h0Zm5-.6h0Zm-5.4-.1h0Zm-65.6-1.5h0Zm66.3.6h0Zm4.8-.3h0Zm-2.4-1.8h0Zm-10.2,27.1h0Zm-81-10.9h0Zm32.1,4.4h-.2a.6.6,0,0,0,0,.1h.2Zm62.8,12.3h0Zm-94.1-26.4h0Zm20.7-6.6h0Zm69.2-.1h0Zm-.7-.2h0Zm-66.1-2.3h0Zm46.4,18h0Zm25.4,5.6h0Z"/><path class="a" d="M664.1,360.4c-1.1-.3-2.1.3-3.1.5a28.3,28.3,0,0,1-4,.6l-2.2.3a18.8,18.8,0,0,1-3.6.5c-.8,0-1.4.6-2.3.5a7.1,7.1,0,0,0-2.3.3l-1.2.5a3.3,3.3,0,0,0-2.3.4h-.4a17.8,17.8,0,0,0-3.4.3,9.2,9.2,0,0,0-2.7.4,9.6,9.6,0,0,1-2.5.4l-.6.3.8.5h0l2.3,1.9,1.8,1.8.7.6,5.9,4.5,1.5,1c-.1.2-.1.3-.2.3l-2,.5h-1.8l-5.5-.4-5.8-.4h-.3l-1.9-1.4c-1.1-.9-2.2-1.9-3.4-2.6s-3.3-2.5-4.9-3.8l-2.3-1.9a5,5,0,0,0-.4,1.4c0,.3-.1.4-.3.6s-.6.6-.3,1.1h0l-.9,1.2c.5.6,1,1.2,1.4,1.8a2,2,0,0,1,.3,2.2h0a4.6,4.6,0,0,1-.8,1l-1.7.9-1.2.5-2.1-1.3a.5.5,0,0,1-.1-.4c0-.2.6-.4,0-.7s.3-.6-.1-.9.1-.3.1-.4l1.1-1.4c.3-.5,1.2-.6.7-1.5a2.7,2.7,0,0,0,.1-1.8,13.4,13.4,0,0,1,0-2.6c0-.1.2-.3.4-.4s-1.4-.4-2-.6-.2.4-.2.7l-.7.2v.2l.6-.4a3.8,3.8,0,0,1-3.2,3.3,2.2,2.2,0,0,1-1.7-.5,3.9,3.9,0,0,1-.9-.9c-.7-.8-.7-.8-.2-1.8a4,4,0,0,0,.2-1.1,4.4,4.4,0,0,0-3.5-.2l-.5-.6c-.6.1-1.1.4-1.6-.3s-.7-.1-1-.1l-.6,2.3-.9-1.2-1.8-2.9V361c.2-1.4-.7-1.9-1.8-2.2s-.7-.7-1.1-1.2l.7-.9c.7-.6.7-.7.3-1.5l-1.1-1.9a3.1,3.1,0,0,1-.6-2.9,3.4,3.4,0,0,1,1.3,1.9,18,18,0,0,0,1,1.8l.2.6.5.9c.6-.2.1-1.3,1-1.2h0a19.2,19.2,0,0,0,0,2.7c.1.4.6.8.8,1.2a1.3,1.3,0,0,0,1.2.7l.8.2c1.1.5,2.3.2,3.4.5a.9.9,0,0,0,.8-.2.8.8,0,0,1,1.3,0l3.5-2.8,1.2-1.1a.8.8,0,0,0,.2-1.2l-1.2-2-.5.2c-1.5-.4-2.7.4-4,.7a4.9,4.9,0,0,1-2.1,0l1.4-.5,3-.5.6-.3h0c1,.1,1.3-.2.9-1a17.8,17.8,0,0,0-1.1-1.7h0l-.5-1.2-4-7.2-.6-.8-.2-.4a8,8,0,0,0-1.1-2.2c-.5-.6-.5-.8,0-1.4a2.5,2.5,0,0,0,.6-1c.1-.6.5-.7.9-.9h-.6c.4-.5.5-.6.8-.4a1.3,1.3,0,0,0,1.7.1l-.4-.2a3.8,3.8,0,0,1,2-.5,12.6,12.6,0,0,1,4.3.6c.5.1.8.7,1.2,1.1l-1.1-.4v.2l1.1.2h1.1a9.8,9.8,0,0,1,3.6,2.2h-.3l.4.4h0l.7.5h0l.3.3h0a14.4,14.4,0,0,0,1.6,1.5,6.3,6.3,0,0,1,1.7,2.5l2.8,5.2c.3.5.5,1.1.8,1.7h1.6c-.4.6-.9.4-1.5.5l.9,1.9c.3-.4.7-.6.8-.9s.6-1,.9-1.5h0c1.2-.9,2.4-1.7,3.4-2.6a2.7,2.7,0,0,1,2.2-.8l3.7.4-.2,1.1-1.1,4.9c-.1.7-.3.8-.9.5l-1.3-.3H630l-.3-.2.9-.4h-2.4l.6.4h-2.5v.7l1.1.3v.2l-.7.2h.1l1.1.3h0l.2,1.6-1.3.3,1,2.1a.8.8,0,0,0,.6.3l4.2.3h.3c-.6-.7-.3-1.3,0-2l.5,1.2a1.5,1.5,0,0,1-1.3,1.7l-1.5-.2c-.4,0-.8-.2-.9.4l-.9-.5c0,.3-.1.4,0,.5l.4.8c.5,1,.5,1,1.7.9h2a4.9,4.9,0,0,0,1.9-.2,11.8,11.8,0,0,1,2.5-.3l10.2-.4,5.2-.3h.6c.1-.1.3-.3.3-.4s-.2-.3-.3-.4h-.1c-3-.2-5.8-1.2-8.7-1.7a.7.7,0,0,1-.5-.5l2.1.3,7.2,1.4h1.3a1.1,1.1,0,0,0,.8-.5h-1.8a10.1,10.1,0,0,1,1.2-1.8,9.1,9.1,0,0,1,2.7-2.2c.9-.4,1-.5.8-1.2s-.6-1.1-1.4-1.1h-2.3a4,4,0,0,0-2.2.1l-1.9-.7c.2-.5.6-.3.9-.3l4.7.6h1.8c.2-.6.3-1.2.6-1.8s.3-.3.4-.5l.4.5h0a3.8,3.8,0,0,1,.7-.9,3.1,3.1,0,0,1,1.6-.7c.5,0,.9-.6,1.4-.2h0l.2.2a10.4,10.4,0,0,1,4.8,1.3.9.9,0,0,0,0-1.2l.8-1.7-3.4-.3v-.3a14.7,14.7,0,0,1,3.5.2c0,.4,0,.8,0,1.1a8.6,8.6,0,0,1-.2,1.3,1.3,1.3,0,0,0,.8,1.8h.1c1.2,1,1,1.8-.4,2.4l-1.9.7v.3l1.1.4c.5.2.6.7.2.9s-.8,1.8-1.1,2.8l-.3,1.1h1.5a4.9,4.9,0,0,0,3.7-3.7,8,8,0,0,0,.1-5.1v-.2c.6-1.1-.3-2-.3-3.1a4.6,4.6,0,0,0-.1-1,3.3,3.3,0,0,0-1.3-1.9,4.6,4.6,0,0,1-1-.9c1.1-.1,1.7.7,2.2,1.5a9.4,9.4,0,0,1,1.2,3.4,17,17,0,0,1,.1,6.6,1,1,0,0,0,.6,1.2l.7.3-.3.4h.2V356a1.3,1.3,0,0,0,1.5.7,1.2,1.2,0,0,1,1.2.3l-.9.7-.6-.3c-.9-.4-1.1-.3-1.3.7s-.3,1.6-1.4,1.6-.3.2-.5.3l-1,1,.6.8c-.5.6-.5,1.5-1.3,1.9s-1.3-.4-1.9-.8v-1.2a4.3,4.3,0,0,0-3.1-.8,1.9,1.9,0,0,1-1.6-.5h1.3C664.7,359.7,664.4,360,664.1,360.4Zm-40.2-1.1h0A.1.1,0,0,0,623.9,359.3Zm-20.1-21h0Zm1.5-.1h0Zm1,5.6h0ZM608,349h0Zm8.7,12.3h-.3l.3-.2h0ZM614,336.2h0l.3.4h0Zm4.8,18h.2l-.2.2h0ZM614,338.4v0h0Zm-6.8,6.9-.3.2h.1l.2-.4h0Zm7.7,14.5h0Zm-6.7-25.7h0l-.6-.3v.2Zm8.7,31.9.2-.4-1.4-.5c0,.7.2,1.4,0,1.8a2.5,2.5,0,0,0,.1,2c.4-.8.9-1.4.8-2.2h0l.4-.8Zm13.5-16.6a3.3,3.3,0,0,1-1.5,2l1.5.2c.7.2.5-.7,1-.8v1.3l1.4.2c-.1-.2-.2-.3-.1-.4l.4-1.1c.2-.6-.2-1-.8-.8l-1.1.5-.8-1.1,1.1.4c.4-.5.4-.9-.3-1.5Zm30,10.2,3.7-.2a6.6,6.6,0,0,1,.9-1l1.8-1.1c.2-.1.2-.4.4-.6h-.1Zm-52.6.3c1-1.3,2.2-2.2,2.5-3.7a7.5,7.5,0,0,0-1.4,1.1l-1.3,1.2c0,.4.7.6,0,.9Zm-.5-23a1.7,1.7,0,0,0,2.1,0l-1.3-.7Zm9.6,21.3,1.4,1.3c.1-.3.8-.6.3-1.2Zm10.5-2.9c0-1,0-1-1.4-.9l.3,1Zm-21.1-21.6h0Zm1.2,13.1v1.1l1-1.1Zm2.7,11.5c.9-.4.9-.4.9-1.1Zm14.6-6.3h-.2l.4.8h.2Zm-2.7,6.9h0Zm-10.5-21.8v.2h.6Zm8.5,19.6H620l.2.3h.1Zm13.8-8.8v.2l.5.2V348Zm-18.7,21.9h.2v-.4h-.2Zm9.5-12.9.2-.3c0-.1,0-.1-.1-.2l-.3.2S624.7,356.7,624.7,356.9Zm-19.7-20.7V336l-.3.4h.1Zm12.3,20.7h0Zm8.9,2.7H626v.2h.2Zm-18.7-24.2h0Zm1.7,0h-.3v.2h.3Zm.6,7.9v.2h.1l.2-.2Zm23.9,9.3h0Zm-19.5,1.1v-.2h.1Zm32.4,7.3h-.2a.5.5,0,0,0,0,.2h.2S646.6,361.1,646.6,361ZM626,358.6v.2h.1v-.2Zm-6.3,6.4h-.3s0,.1,0,.2ZM605.4,337h.1s0-.1,0-.1h-.1A.7.7,0,0,0,605.4,337Zm18.8,17.9h0Zm-6.1,2.7h0Zm1.1.2h0Zm6,.2h-.1v.2h.1Zm-10,.5h0Zm9.6.1v-.2h-.1v.2Zm-5,0h0Zm8.5,6.3h0Zm-6.6-7.5h0Zm-1.2,1.9h0Zm-1.7-2.1h0Zm-12,2.4h0Zm17,.4h0Zm.9-1h0Zm-18-12.4v.2h.1Zm1.9-.5h0Zm2.1-8.5h0Zm-3.8-1h0Zm2.4-.4h0Zm6.6,25h0Zm25.4,12.3h0Zm-31.1-21h0Zm-3.9-7.6h0Zm10.3,13.2h0Zm.6-1h0Zm3.1,5.5h0Zm9.1,3.8h0Z"/><path class="a" d="M641.3,350.1a1.1,1.1,0,0,0-1.2-.2l-3.9.8-.5-.2.3-.8-1.2.9,1-4,3,1.9,1.3.6v0l-2.1-1.8a6.6,6.6,0,0,0-4.3-1.6h-1.1c.1-.5.4-.6.8-.5l1.8.2c.3.1.6.5.9.6,2.1.6,3.5,2.2,5.1,3.5s0,.5.1.7Zm-2.3-.4v-.3l-1.1-.5-.9-.6v2Z"/><path class="a" d="M641.3,350.1h.6l4.9.7,1.8.2,1.4.2c0,.6-.3.6-.7.5l-5-.8a5.7,5.7,0,0,0-1.7-.2c-.6.1-.8-.3-1.1-.6Z"/><path class="a" d="M643.2,357.2c-1,.2-1.9-.3-2.9-.5s-2-.5-3-.7l-3.1-.6c.3-.5.7-.3,1-.2l5.7,1.3,2.3.5Z"/><path class="a" d="M639.2,353.5l4.9,1.4,3.6,1.1v.2h-.8l-6.9-2.1c-.3-.1-.8-.1-.8-.7Z"/><path class="a" d="M682.5,357.5h-4.3a1.4,1.4,0,0,1-1-.5l.5-.2,4.4.2Z"/><path class="a" d="M626.1,349.4h-1v-.2c1.6-.8,2.8-2.2,4.3-3.2l.2.3-.8.7-2,1.6-.8.9Z"/><path class="a" d="M597.3,353.8l3.4-.7h.9v.3l-.8.2-1.6.4C598.3,354.4,597.8,354.3,597.3,353.8Z"/><path class="a" d="M653.2,358.5c-1.6-1.2-3.4-1.2-5-2,.6-.3,1,.1,1.5.2l1.6.3,1.8.4Z"/><path class="a" d="M627.9,354.1a1,1,0,0,1,1.1-.4,12,12,0,0,0,4.1.1h0c0,.1,0,.4-.1.4a7.5,7.5,0,0,1-1.7.2l-3.4-.3Z"/><path class="a" d="M683.2,357.1a4.8,4.8,0,0,1,2.5-.1,3.5,3.5,0,0,0,1.3,0,2.1,2.1,0,0,1,1.8.4h-.9a6.5,6.5,0,0,0-3.5,0,3.1,3.1,0,0,1-1.2-.1Z"/><path class="a" d="M669.3,343.3h-.6a2.5,2.5,0,0,0-2.4,1c-.1.2-.5.2-.8.3C667,343,668.4,342.4,669.3,343.3Z"/><path class="a" d="M639.2,353.5h-1.5l-2-.5v-.3l3.4.7Z"/><path class="a" d="M663,348.2a2,2,0,0,1,1.5-1.8h0a15.8,15.8,0,0,1-.9,1.5c-.1.2-.5.2-.7.2Z"/><path class="a" d="M631.8,345.4a2,2,0,0,1-1.8.1A2,2,0,0,1,631.8,345.4Z"/><path class="a" d="M664.5,346.4c-.4-.8.4-1,.7-1.5l.4.4-1.1,1.1Z"/><path class="a" d="M639.5,350.9l1.3.2c-.5.4-.9.1-1.3.1Z"/><path class="a" d="M657.7,353.1l-1-.4c.5-.2.9-.2,1.1.1Z"/><path class="a" d="M632.9,354.7h.9v.2h-.8Z"/><path class="a" d="M641.1,351.2h1.2C641.8,351.3,641.8,351.3,641.1,351.2Z"/><path class="a" d="M634.5,352.5l.7.2v.2h-.7Z"/><path class="a" d="M643.2,351.4l.3-.2h.3l-.3.3Z"/><path class="a" d="M604.6,357.2l-.2.3v-.4Z"/><path class="a" d="M600.3,357h-.8v-.2h.3Z"/><path class="a" d="M616.2,338.1h.4v.2h-.3l-.3-.3Z"/><path class="a" d="M615.5,337.1l.4.2-.4.3h0v-.5Z"/><path class="a" d="M654.8,352.6h-.4v-.2h.2Z"/><path class="a" d="M596.5,354.5V354h.2l-.4.3Z"/><path class="a" d="M633.4,355.6l-.3.2H633l.3-.2Z"/><path class="a" d="M642.9,351.1v.3h-.1l-.2-.2Z"/><path class="a" d="M716.2,339.1H716c0-.1-.1-.2,0-.2h.2Z"/><path class="a" d="M633,353.8h0Z"/><path class="a" d="M597.8,357.8h0Z"/><path class="a" d="M605.3,356.8h0Z"/><path class="a" d="M639.4,364.7h0Z"/><path class="a" d="M604.6,364.3h0Z"/><path class="a" d="M689.4,358h0Z"/><polygon class="a" points="687 357.9 687.1 357.9 687.1 358 687 357.9"/><path class="a" d="M686,357.9h0Z"/><path class="a" d="M672.8,360.5h0S672.8,360.5,672.8,360.5Z"/><path class="a" d="M665.4,361.3h0S665.4,361.2,665.4,361.3Z"/><path class="a" d="M656.4,349.8h0Z"/><path class="a" d="M648.4,349.6h0Z"/><path class="a" d="M663.2,346.1h0Z"/><path class="a" d="M606,353.7h0Z"/><path class="a" d="M734.7,339.7h0Z"/><polygon class="a" points="739.8 339.6 739.8 339.7 739.8 339.7 739.8 339.6"/><polygon class="a" points="611.9 368.1 612 368.1 612 368.1 611.9 368.1"/><path class="a" d="M655.5,352.7h-.1v-.2h.1Z"/><path class="a" d="M598,357.2h0Z"/><path class="a" d="M662.5,362.4h0Z"/><path class="a" d="M617,369.1h0Z"/><path class="a" d="M606.9,351.9h0Z"/><polygon class="a" points="605.6 351.6 605.6 351.7 605.6 351.7 605.6 351.6"/><polygon class="a" points="624.1 350.4 624.1 350.4 624 350.4 624.1 350.4"/><path class="a" d="M652.2,350.5h0Z"/><path class="a" d="M606.7,349.1v.2h0Z"/><path class="a" d="M648.4,349.5h0Z"/><polygon class="a" points="622 344.7 622 344.7 622.1 344.7 622 344.7"/><path class="a" d="M667.4,344h0Z"/><path class="a" d="M668.1,343.8h0Z"/><polygon class="a" points="737 339.8 736.9 339.7 737 339.7 737 339.8"/><path class="a" d="M633.4,356.2h0Z"/><polygon class="a" points="661.6 361.4 661.6 361.4 661.6 361.4 661.6 361.4"/><polygon class="a" points="656.9 361.7 656.9 361.8 656.8 361.8 656.9 361.7"/><path class="a" d="M634.2,366h0Z"/><path class="a" d="M707.9,355c0-.7-.1-1.4,0-2.2s.2-1.3,1.5-1.4a2.1,2.1,0,0,1,2.1,2.4c-.1.8-.3,1-1.2,1.2A3.4,3.4,0,0,1,707.9,355Z"/><path class="a" d="M710.8,347.7c.1.8.1,1.5.2,2.1s-.5.9-1.1,1h-1.7a17.4,17.4,0,0,1-.1-2.4,1.1,1.1,0,0,1,1.1-.9Z"/><path class="a" d="M729.5,352.6l1.2-2.3.7,2-.3.2Z"/><path class="a" d="M728.1,365.8h-1.3l.6-1.5h.3Z"/><path class="a" d="M720.4,365.1v-2.9c.9-.2,1.8-.3,2.3.5s.1,1.6-.3,2.2S721.2,365.2,720.4,365.1Z"/><path class="a" d="M616.6,366.8v0Z"/><path class="a" d="M615.8,367.6h0v-.2Z"/><path class="a" d="M617,366h0Z"/><path class="a" d="M615.8,367.7h0Z"/><path class="a" d="M770.2,78.1c.8,1.7.1,2.5-.9,3.1l-3.8,2.2c-4.5,2.3-9,4.8-13.7,6.7a125.4,125.4,0,0,1-13,4c-6.3,1.8-12.7,1.3-19.1.9a31,31,0,0,1-11.8-3.2c-2.2-1.1-4.6-1.7-6.9-2.6l-4.2-1.9c-4.6-2.2-9.1-4.6-13.7-6.7-9.1-4.2-18.4-7.7-28.6-7.4-1.2,0-2.5-.4-3.7-.3l-7.6.5a72,72,0,0,0-12.5,2.8,38.1,38.1,0,0,0-5.1,2.2,128.5,128.5,0,0,0-15.3,7.7,86.3,86.3,0,0,1-8.1,4,1.9,1.9,0,0,1-.9.3c-.4,0-1-.1-1.2-.4a1.2,1.2,0,0,1,.2-1.2,6.2,6.2,0,0,1,1.7-1.1l7.8-3.5c2.7-1.2,5.2-2.7,7.9-3.9s6.1-3.3,9.6-3.8c1.9-.3,3.7-1.4,5.7-2a66.2,66.2,0,0,1,30.7-2,58.4,58.4,0,0,1,14.1,4.3c2.4,1.1,5,1.9,7.4,3.1a29.9,29.9,0,0,1,2.7,1.3,40.4,40.4,0,0,0,8.6,4c3.3,1.2,6.5,2.9,9.7,4.4a39.7,39.7,0,0,0,10.8,3.3l6.6,1h.4c5.5-.4,11-.1,16.4-1.7,3.5-1.1,7-2.4,10.5-3.6a44.4,44.4,0,0,0,6-2.9l6.9-3.7,3.3-2.1Z"/><path class="a" d="M770.3,65.6c.5,1.9.4,2.2-1,3l-8.9,4.8c-2.9,1.5-5.8,3-8.8,4.1A75.5,75.5,0,0,1,736.3,82a68.2,68.2,0,0,1-9,.4h-4.6a36.1,36.1,0,0,1-14.8-3.3c-2.3-1-4.8-1.7-7.1-2.7s-2.5-1.2-3.7-1.8c-4.6-2.3-9.2-4.6-13.9-6.8-8.6-3.9-17.3-7.4-27-7.3-1.8,0-3.5-.3-5.3-.4a42.4,42.4,0,0,0-8.3.5,79.4,79.4,0,0,0-12.1,2.8,54.3,54.3,0,0,0-5.7,2.5,123.5,123.5,0,0,0-14.4,7.3,68.1,68.1,0,0,1-7.9,3.9,7.8,7.8,0,0,1-2.2.3c-.1-1.8,1-2.2,2.1-2.7s4.7-1.9,7-3l8.7-4.4c2.1-1,4.1-2.1,6.3-3s3.2-.6,4.7-1.2a59.8,59.8,0,0,1,18.4-4.3c8.4-.6,16.7,0,24.8,2.7,4.1,1.4,8.2,3.2,12.2,5s6.8,3.4,10.2,4.9,7.5,3.3,11.3,4.8,6,2.3,9.1,3.3a32.6,32.6,0,0,0,6.1,1,64.3,64.3,0,0,0,9.4.6,70.5,70.5,0,0,0,9.5-1.5,32.1,32.1,0,0,0,4.2-1.2,71.8,71.8,0,0,0,13.5-5.9c1.9-1.1,3.9-1.9,5.8-2.9S767.9,67,770.3,65.6Z"/><path class="a" d="M770.8,27.4c.4,2,.3,2.3-1.1,3-5.4,2.7-10.7,5.5-16.1,8.1a61.1,61.1,0,0,1-18.3,5.5c-3.6.5-7.2.3-10.8.4a38.5,38.5,0,0,1-13.4-2.3c-2.1-.7-4.1-1.7-6.2-2.5l-1.5-.7-7.6-3.3-9-4.1-7.1-3.4a53.7,53.7,0,0,0-23.9-5.7c-1.5,0-3.1-.3-4.6-.3a41.1,41.1,0,0,0-8.1.5,84.3,84.3,0,0,0-11.8,2.8,51,51,0,0,0-5.1,2.2A119.5,119.5,0,0,0,611,35.3a87.2,87.2,0,0,1-8.1,4l-.7.2-1.5-.3a3.8,3.8,0,0,1,.5-1.3,5.2,5.2,0,0,1,1.5-1l15.5-7.2,6.2-3,.4-.2c4.2-.5,7.9-2.6,11.9-3.6a68.9,68.9,0,0,1,27.9-1.1,94.6,94.6,0,0,1,25.8,9.9,37.1,37.1,0,0,0,4.4,2l11.3,4.8c3.1,1.2,6.2,2.4,9.4,3.3a29,29,0,0,0,5.7.9,67.3,67.3,0,0,0,9.4.5,79.1,79.1,0,0,0,9.8-1.5,30.2,30.2,0,0,0,3.8-1.1A80.3,80.3,0,0,0,757.7,35l7.6-3.9c1.3-.7,2.5-1.8,3.8-2.6Z"/><path class="a" d="M600.3,64.9c-.2-1.8,1-2.2,2-2.7l8.9-3.9c2.4-1.1,4.6-2.5,7-3.5s5.8-3.2,9.2-3.7a31.2,31.2,0,0,0,5.3-1.7A60.4,60.4,0,0,1,650,46.3a64.8,64.8,0,0,1,22.4,2.8c2.5.8,4.9,1.9,7.3,2.8a53.9,53.9,0,0,1,10.6,5.1l1.5.7,15.3,6.7a45.9,45.9,0,0,0,13.6,3.7,65.3,65.3,0,0,0,10.3.6c3.3-.2,6.5-1.2,9.7-1.7s7.1-2.5,10.7-3.6a26.9,26.9,0,0,0,3.9-1.9l9.8-5.1a26.7,26.7,0,0,0,2.7-1.9l2.5-1.7c.7,1.9.6,2.2-.7,3l-4.2,2.4c-4.4,2.2-8.7,4.7-13.3,6.6s-8.7,2.6-13,4a30.4,30.4,0,0,1-9.2,1.1c-6.8.1-13.6,0-20-2.6l-5.5-2.4-10.9-4.5-1.5-.7c-4.7-2.3-9.4-4.7-14.2-6.9A55.3,55.3,0,0,0,656,47.9a50.8,50.8,0,0,1-5.8-.3,26.4,26.4,0,0,0-9.6.8c-3.9.9-7.9,1.3-11.5,3.3a77,77,0,0,1-7.2,3.2,99.2,99.2,0,0,0-11.3,5.8,90.3,90.3,0,0,1-8.3,4A6.9,6.9,0,0,1,600.3,64.9Z"/><path class="a" d="M770.8,40.1a2.2,2.2,0,0,1-1.2,3,139.2,139.2,0,0,1-17.7,9,65.1,65.1,0,0,1-16.7,4.7c-3.4.4-6.9.2-10.4.3A38.5,38.5,0,0,1,711.2,55c-2.3-.7-4.4-1.8-6.6-2.7s-7.4-2.9-11-4.5-5.9-2.9-8.9-4.4-5.6-2.9-8.5-4c-4.7-1.8-9.5-3.4-14.5-3.7l-2.5-.3c-3.4-.2-6.8-.5-10.2-.5a40.6,40.6,0,0,0-5,.5,70.5,70.5,0,0,0-12.3,2.8,46.1,46.1,0,0,0-5.3,2.2,124.4,124.4,0,0,0-15.5,7.7,85,85,0,0,1-8.1,3.9,2.5,2.5,0,0,1-1.1.3,1.3,1.3,0,0,1-.9-.4,1.1,1.1,0,0,1,.1-1,5.9,5.9,0,0,1,1.7-1.2l8.3-3.6c2.6-1.2,5.1-2.6,7.7-3.8s6.1-3.3,9.6-3.8c1.8-.3,3.5-1.2,5.2-1.8A65,65,0,0,1,664,34.4a56,56,0,0,1,14.3,4.4c2.4,1.1,5,1.8,7.4,3.1s2,.8,2.9,1.4a41.6,41.6,0,0,0,8.4,3.8c3.3,1.2,6.5,2.9,9.7,4.4a53.9,53.9,0,0,0,14.2,4,69.3,69.3,0,0,0,9.9.4c3.2,0,6.3-.8,9.5-1.4a30.9,30.9,0,0,0,4.2-1.2A72.2,72.2,0,0,0,758,47.3c1.6-.9,3.4-1.5,5-2.4s4-2.6,6-3.8Z"/><path class="a" d="M123.7,145.2a11.4,11.4,0,0,1,2.6-.3c1,.1,2-.1,2.9,0l.6.3c.2.1.5.1.6,0s.6-.2.9,0,.9.5,1.4.1a1,1,0,0,1,.7-.1,7.6,7.6,0,0,0,2.2-.1h.4a23.7,23.7,0,0,0,5.2.4l1,.2h.7a6.9,6.9,0,0,1,2.3,0h3.5c1.3-.2,2.5.3,3.7.2a11.6,11.6,0,0,1,2.9.1l.8.2h.3a6.1,6.1,0,0,1,2.9.1,4.8,4.8,0,0,0,1.6-.1h2.1a3.5,3.5,0,0,1,1.5.2,3.8,3.8,0,0,0,1.4.1c.5,0,1.1.3,1.6-.2h.3c.4.5.8.2,1.3.2a2.3,2.3,0,0,1,2.2.8c.1-.6.3-.9.9-.8l2.4.3a.6.6,0,0,1,.6.6,4.1,4.1,0,0,1-.2,2.3c-.1.3-.1.6-.1,1a38.8,38.8,0,0,0-.3,7,25.7,25.7,0,0,1-.1,3.3c-.1,1.5-.2,2.9-.3,4.4s.1.8.1,1.2-.2,1.9-.2,2.9-.1,1.9-.1,2.9-.1,4.4-.3,6.5a17.4,17.4,0,0,0,0,3.5,3.2,3.2,0,0,1-.1,1.3,6.3,6.3,0,0,0,0,1.8,16.5,16.5,0,0,1,0,3,.8.8,0,0,1-.8.8,4.4,4.4,0,0,1-1.8-.1,9.8,9.8,0,0,0-1.8-.2h-.6c-.5,0-1-.3-1.5,0a9.8,9.8,0,0,0-2.4-.2h-2.3c-1.3-.2-2.6,0-3.9-.1l-5.4-.2h-2.5a5.2,5.2,0,0,1-1.8,0,10.6,10.6,0,0,0-3.3-.2,21.6,21.6,0,0,1-3.6-.1c-1.1-.1-2.1,0-3.2-.2a26.9,26.9,0,0,0-3.3-.2h-2.9l-1.8-.2a18.5,18.5,0,0,1-3.3-.2,11.4,11.4,0,0,0-3.7,0h-.4a10.1,10.1,0,0,0-3.8-.5h-1.1l-1-.3H116a23.3,23.3,0,0,1-2.9-.2,6.9,6.9,0,0,0-2.2,0h-1.3a2.5,2.5,0,0,0-1.5,0c-.3.1-.6-.1-.9-.1h-4.3a2.8,2.8,0,0,0-1.9-.1H99.9a24.7,24.7,0,0,1-3.3-.2c-1.2-.2-2.4-.1-3.7-.3l-2.2-.2H80.5l-2.1-.4h0c-.2.5-.5.3-.8.3H75.3c-.3,0-.7-.1-.8-.2a.9.9,0,0,0-1.2-.3,5.5,5.5,0,0,1-2.4.3H69.3l-1-.4c-.5.6-1.3.2-2,.3H65l-2.9-.3H57.4l-3.1-.2L50,184a9.1,9.1,0,0,0-1.7-.2c-1.3.2-2.6-.3-3.9-.1a3.5,3.5,0,0,0-.3-.9l-.7-.2.5.8H42.5l-.3-1.2c.6-.1,1.1.1,1.6-.3s.6,0,.9,0h1.8a5,5,0,0,0,2.5.1.9.9,0,0,1,.7.2,2.1,2.1,0,0,0,1.4.4c.5,0,.9,0,1.2.5l.3-.5.6.7c.5-.3.6-.5.1-.9a2.6,2.6,0,0,1,1.9.3c.3.3.7-.1,1-.1h.4v.8a2.1,2.1,0,0,1,1.9-.4c.6.3,1.4-.2,1.9.7l.2-1,1.4.6c.4.1.8.3,1.3,0a1.9,1.9,0,0,1,1.1-.1c1.3.1,2.4.6,3.6.7h1.8a1.6,1.6,0,0,0,1.5.1,15.8,15.8,0,0,1,2.4,0,3,3,0,0,1,2.1.2h.2c1.1-.4,2.2.1,3.2.2l.4.3-.2.2h.1v-.3h.3a1.5,1.5,0,0,0,.2-.5c1.3.4,2.7-.1,4,.1l2,.2h1.1c1.3.4,2.6,0,3.9.1l2,.2h1c.9.5,2,.1,2.9.3a8.5,8.5,0,0,0,2.9-.1,26.9,26.9,0,0,1,4.8.3c1.2.1,2.5.5,3.7,0h.4a7,7,0,0,0,3.3.4h1.7a4.9,4.9,0,0,1,2.6.2l1.1.2H119c1.5-.2,3,.2,4.5.1s1,.2,1.5.2h3.4c1.7.4,3.4.1,5,.3l3.5.3h3.1a10.6,10.6,0,0,1,2.3.2,8.3,8.3,0,0,0,2-.1h1.2a13.2,13.2,0,0,0,3.5.1c.6-.1,1.1.3,1.8.2a8.6,8.6,0,0,1,1.6,0h5.3a20.2,20.2,0,0,0,2.9,0,10.5,10.5,0,0,1,2.8.1,30.2,30.2,0,0,0,3.1,0h4.1c1,.1,1.1,0,1.2-.9s.1-2.2.2-3.3.2-2.8.3-4.2.1-2.2.1-3.3.2-1.1.2-1.7.1-3.7.2-5.5.1-2.8.2-4.3,0-3.1.1-4.6a19.2,19.2,0,0,0,0-2.5,13,13,0,0,1,.1-1.4,26.3,26.3,0,0,1,.2-3.8c.2-.9.1-1.8.2-2.7a2.6,2.6,0,0,0-.1-.7,4.6,4.6,0,0,1-2.5.3h-4.9l-5.5-.6c-3.1-.3-6.1-.3-9.2-.5l-3.9-.3h-3.8l-1.7-.2-4.1-.3h-3.4l-1.7-.2a18.7,18.7,0,0,0-4.2-.2l-2-.2a15.2,15.2,0,0,0-3.6,0h-1.1l-6.4-.2h-4.4c-1.1,0-2.3-.2-3.4-.3h-4.4a7.5,7.5,0,0,0-1.8-.1c-.5.1-1.2-.2-1.8-.1s-.4-.2-.7-.3l-1.1.3-.2-.9-.4.8-8.3-.4-.4-.8-.4.7c-.3-.1-.9.3-1-.5h-.4a2.5,2.5,0,0,1-2.7.1l-1.3.2H80.6l-1.4-.3h-.2a1.7,1.7,0,0,1-1.5.1,7.9,7.9,0,0,0-1.5,0l-3.4-.2c-.3,0-.5-.3-.8-.4s-.4.4-.6.3a2.4,2.4,0,0,1-1.9-.8H70l-.6-1.3h.8v.7l1-.6c.4-.2.6-.2.9.1s.7.1,1.1.1h.5a1,1,0,0,0,1,.2c.7-.1,1.2.2,1.9.3h0v.2c.4.1.3-.6.7-.4l1.7-.2h1.9l2.8.2h.9l1.2.3c.1,0,.3-.5.6.1s.5.1.7,0h.5a6.4,6.4,0,0,0,1.9.1,21.7,21.7,0,0,1,2.8.1,2.5,2.5,0,0,1,1.2.4,1,1,0,0,0,.7,0c.8-.3.8-.3,1.3.5v-.6H98a13,13,0,0,0,2.6.3c.9-.1,1.8.2,2.8.2l.2.7.4-.6.5.8V144h2.7l4.1.2h.2c1.2.6,2.5.1,3.8.3s2.1-.1,3.1.1,1.2-.2,1.8.2,1.4.3,2.1.3h.6a.6.6,0,0,1,.9.2h0ZM99.5,184.8h-.1v-.2h0ZM51.3,183v0h0Zm45.7,2v.3c.2,0,.5-.2.7-.1s.3.1.3-.1-.2-.3-.2-.3Zm-25.3-1.3h-.2c.1.3.1.6.7.6Zm7.6-40.9v.2h.5v-.2Zm61.5,3-.2.2v.2h.2ZM50.2,183.3h.1L50,183h-.1Zm3.7.3h-.1s0,.1,0,.1h.1Zm3.4.3-.2-.2h-.2v.2Zm39,.9-.2.2v.2h.2Zm-7.6-.2v-.2h-.1v0Zm-41.7-1.5h0Zm40.8-38.6h0ZM50.8,182.9h0Zm36.7,1.9h0Zm31.8,1.5h0ZM101.6,144h0Zm22.7,1.5h0Zm49.4,6.2h0ZM44.9,183h0Zm10.2.8h0Z"/><path class="a" d="M154.5,174.6h1.1a11.2,11.2,0,0,1,2.8.2h2.7a1,1,0,0,1,1.1.6,2.6,2.6,0,0,0,.6.8,2.2,2.2,0,0,1,.7,2,10.6,10.6,0,0,0,0,2c0,.3.1.5.1.8s-.3,1.2-1.4,1.1l-2.3-.3h-5.2l-3.5-.2h-1.6c-.6-.1-.9-.6-1.3-.9l-.2-.4a2.8,2.8,0,0,1-.8-2.8c.2-1.3.2-2.7.2-4s.1-3.2.2-4.8.2-2.3.2-3.5,0-2.9,0-4.4a1.5,1.5,0,0,1,0-.4c.4-1.2.1-2.5.3-3.8s0-.3,0-.5.3-1,1.1-.9h2l1.8.2h5.3a15,15,0,0,0,2.1.2c1.2-.1,2.3,0,2.8,1.3s.5.5.6.8a2.1,2.1,0,0,1,.3.9c0,1.1,0,2.1,0,3.2s.1.8-.4,1a.9.9,0,0,1-1.1-.3h-1.2a36.5,36.5,0,0,0-4.1-.1,9,9,0,0,1-1.6-.2c-.7-.1-.8.1-.9.7s0,.3,0,.5v.5h-.8l.4.9h.4a9.8,9.8,0,0,0,2.3.2,13,13,0,0,1,2.4,0h.3c.7.5,1.5.9,1.9,1.7a1.4,1.4,0,0,1,.2.6,25.8,25.8,0,0,1-.3,3.9.6.6,0,0,1-.7.5h-2.5l-3.5-.3a.4.4,0,0,0-.5.4C154.5,172.9,154.5,173.7,154.5,174.6Zm5.5-5.1.3.4h.1l-.4-.2V169l-.6.3h-.2c.5-.7.3-1.5.3-2.2s-.1-.9-.9-1.1h-.5l-4.5-.2h-1.4c0-1.3,0-2.4.1-3.6s.2-.6.2-.9-.1-.6-.1-.9.2-.7.6-.7l4.6.2h2.9c.7,0,1-.3,1-1s0-.7,0-1a.9.9,0,0,0-1-1.1c-1.2-.1-2.3,0-3.5-.2l-3.3-.2h-3.8c-.7,0-.9.1-.9.8s-.3,2.4-.3,3.6.1,2.3-.1,3.4a19.3,19.3,0,0,0-.1,4.8,1.5,1.5,0,0,1,0,.5c-.3,1.1-.1,2.3-.3,3.5s-.2,2.5-.3,3.8.4,2.2,2.1,2.1,2.4.1,3.6.1h6.8a7.3,7.3,0,0,0,.4-2.7c0-.3-.3-.5-.6-.5a14,14,0,0,0-2.2.1,8.9,8.9,0,0,1-3.3-.1h-1.9c-.7,0-1-.2-1-.9s.1-1.8.1-2.7.1-1.5.2-2.3.3-.9,1-.8h4.1l.2.6.7-.5,1.3.9v-1Zm-6.1,1.3h0c0-.4-.3-.2-.5-.2v-.3h-.1l.3.2.3,1.2.7-.2a.7.7,0,0,0-.5-.4C153.5,171.1,153.6,170.9,153.8,170.8Zm6.2-9.3h.9l-.8-.7h-.3Zm-6.1,18.4h-.2v.7l.6-.2Zm1.8-9.1v-.5l-.7-.2Zm3.3-10.6h-.1l-.4.3.2.2Zm-2.8.5H156l-.2.3h.2Zm2.7,1.2.2-.3v-.2h-.2A1.4,1.4,0,0,0,158.9,162Zm3.6,16.4v-.2h-.1Zm-6.3-8.5h-.1s0,.1,0,.2h.1S156.3,170,156.3,170Zm-3,9.8h0Zm3.3.1h0Zm-.6-.1h0Zm6.4-21h0Zm-2.3,9.8h0Zm-5.4,1.4v-.2h-.1v.2Zm-.5-8h0Zm6.8.2h0Zm-5.9,17.4h0Zm-2.8,1.2h.1s0-.1,0-.1h-.1Zm6.3.4h0Z"/><path class="a" d="M125.8,176.5a1.6,1.6,0,0,1-.5-1.4c.2-2.3.3-4.7.4-7s.2-2.8.3-4.1a3.4,3.4,0,0,1,.1-.6c0-.1.1-.3.1-.4a6.6,6.6,0,0,1-.1-2.7c.1-1.6.1-3.2.1-4.8a1,1,0,0,1,1.3-1h.8a15.5,15.5,0,0,1,3.6,0,16.4,16.4,0,0,0,2.5.2,11.9,11.9,0,0,1,3,.3,7.9,7.9,0,0,1,3.8,2.2,16.7,16.7,0,0,1,1.8,2.6,1.8,1.8,0,0,1,.3,1.3h-.7l.6.6h.2v-.6c.6.2.5.7.5,1.1a10,10,0,0,1,0,1.2l-.9.3c.1.6.5.1.8.3a2.4,2.4,0,0,1-.1,2.1,24.5,24.5,0,0,1-1.3,2.8l-.4.2-.3-.2h.3l-.6.6a1.6,1.6,0,0,0-.6,2,4.6,4.6,0,0,1,.6,2.4,22.6,22.6,0,0,1,.9,3.1,11.2,11.2,0,0,1,.3,1.2l.4,1.2c.2.6.5,1.1.1,1.8l-3.5-.4h-.9a1,1,0,0,1-1.2-.4l-1.6-2.5-.4-.2a1.7,1.7,0,0,0,0-1.6,17.4,17.4,0,0,1-.7-2.6l-.3-1.2a1.6,1.6,0,0,0-1.2-1.3l-.8.6c0,1.5,0,3.1-.1,4.7s0,2.3-.1,3.5-.2.8-.8.8l-2.8-.2h-.5c-.9.2-1.4-.4-1.9-1a2.8,2.8,0,0,1-.8-3h.4l.4,1h3.3l.2-3.8c.4,0,.8.2,1-.3h.9c-.7-.6-.7-.6-1.5-.1s-.3-.4-.3-1.1a2.6,2.6,0,0,1,.1-1.1c.1-.2.5-.2.7-.3s-.5,0-.8-.2a12.4,12.4,0,0,1,0-1.5c.1-.7.4-.9,1.1-.7h2.5c.6,0,.8.3,1,.9a18.4,18.4,0,0,0,.5,2.4c.1.2-.1.6,0,.8a10.3,10.3,0,0,1,1.1,3.5c.1.6.4,1.2.6,1.8h1.6a1.8,1.8,0,0,1,1.8.8h.2c-.1-.2-.3-.4-.3-.6s-.5-2.7-.8-4-1-3.7-1.5-5.6c-.1-.2-.3-.5.1-.7s.4.3.6.4h.2l-.2-.8c.3-.1.7-.2.7-.4s1.5-1.2,1.5-2.2a9.1,9.1,0,0,0,.7-4.7,3.8,3.8,0,0,0-.6-1.9,5.2,5.2,0,0,0-4.7-2.9l-4.2-.2a23.9,23.9,0,0,0-3.9-.2c-.6.1-.7.1-.8.7s0,.7-.1,1.1-.2,2.6-.3,3.9-.1,2.1-.1,3.1-.2,3.5-.4,5.3,0,1.2-.1,1.8a28.5,28.5,0,0,0-.2,4.6C126.1,176,125.9,176.2,125.8,176.5Zm4.5,2.8h0Zm8.6.8v.3h.1v-.6h-.1Zm3.1-14-1.7.5,1.5.9v.2h.1v-.2l.2-1.4Zm-9.6,3.2h-.1l1,.9.2-.8Zm7.2-1.8v.2l.8.8.3-.8Zm3.2-5.1a.4.4,0,0,0-.7.1.3.3,0,0,0,.1.3C142.5,162.8,142.7,162.8,142.8,162.3Zm-3.2,17v-.2h0Zm-8.8-4.7h-.1l.3.5a.5.5,0,0,0,0-.5Zm7.3,4.4h-.3v.2h.2Zm-6.6-3.3h-.1l.2.4h.2Zm-3.8,3.7h-.1l-.4.2v.2Zm3.1-9.5.2-.3H131l-.3.2Zm-2.6,9.8h0Zm9.2-.3h0Zm-5.2-9.2h0Zm-.8,2h0Zm8.6,1.4h0Zm-9.5.7h0Zm.1,1.3h0Zm.1,1.5h0Zm-2.2,1.7h0Zm13.7-10.7h0Z"/><path class="a" d="M113,177.3l.3.3a3.6,3.6,0,0,1,.5-.7l.7-.3c.3.3.2.6-.1.8s.9-.2,1.1.5v-1.1l-1.2-.6a1.2,1.2,0,0,1,1.4-.6l-.8-.8.6-.6V174l-.9.3a25.9,25.9,0,0,1,.4-6.4l.7-.3a3.4,3.4,0,0,1-.4-3h.2l.7,1.1c.2-.5-.1-1.3.7-1l.4-1c-.3-.3-.6-.4-.8.1a.7.7,0,0,1-1.1.2l.5-.3H115c0-.6-.1-1.2,0-1.7s.2-1.9.2-2.9.2-.8.9-.7a16.2,16.2,0,0,0,4,.1c0-.2.1-.5.1-.7s.1-1.2.1-1.8-.1-.8-.7-.8h-.2c-1.5-.4-3,.1-4.5-.3a14.3,14.3,0,0,0-3.1-.1h-4c-.9,0-.9.1-.9,1s0,1.2,0,1.9.7.4,1.1.3a11.9,11.9,0,0,1,2.4.2h.7c.6,0,.7.1.7.8s-.2,1.8-.2,2.7-.1,1.3-.1,2a3.3,3.3,0,0,1-.1.6c-.2.8-.1,1.7-.3,2.6a9.4,9.4,0,0,0,.1,2.5,5.4,5.4,0,0,1-.4,2.1.8.8,0,0,1-.5-1c0-1,.1-2,.2-3.1s.3-4,.4-6a5.4,5.4,0,0,0-.2-1,2.4,2.4,0,0,1-2.5.4c-.7-.1-1.1-.8-1.4-1.4s-.1-.8-.5-1.1-.2-.7-.2-1,.2-2.2.2-3.4v-.4h2.8a8.2,8.2,0,0,1,2,0l2.8.3h.3a8.7,8.7,0,0,1,3.4.1h3.4l.6.9a2,2,0,0,0,.4.6,2.3,2.3,0,0,1,.9,2.2c-.1.9-.1,1.9-.2,2.9a2.4,2.4,0,0,1-.2.5,2.1,2.1,0,0,1-1.6.2l-1.6-.2a.8.8,0,0,1-.7-.4c-.3-.5-.6,0-.9.2s.2,1-.4,1.5l-.2-.6-.7.2c.3.3.5.8.6.8s.6.4.6.7-.1,1.4-.2,2.2.1,1.1.1,1.7a1.5,1.5,0,0,1-.4,1.3c-.2.2.3.6-.1.8s0,.3-.1.4l-1.5,1.5c.5.4.6-.2.9-.2s.3-.5.3-.8.8.1.7.6-.2,1.5-.2,2.3-.1.8-.7.7-.3,1.6-.6,2.3l.8.5c.3.2.1.6.1.9s0,1.1,0,1.7-.2.7-.8.7h-3.6c-.3,0-.6-.1-.7-.3s-.9-.8-1.3-1.3a2,2,0,0,1-.6-1.4,12.9,12.9,0,0,1,.1-2.5,12.8,12.8,0,0,0,.1-1.5c0-.4,0-.8.7-.9a11.5,11.5,0,0,1,.2,2.2c0,.7-.1,1.4-.2,2.2s.1.6.5.6h1.3c.4,0,.6.1.5.5h0Zm7.4-17.9h-.3l.2-.2ZM116.5,172l.3-.3h-.2v.4h0Zm.6-11h.1s0-.1,0-.1h-.1c0-.7-.4-.9-1.1-1.2A1.6,1.6,0,0,0,117.2,161Zm4.4-3-.6.4c.6.2.7.9,1.4.8Zm0,1.2-.7.6.6.5Zm-6.3,2.3h.6c.3-.2.2-.5.1-.8Zm.1,6.7c-.3.4-.3.6.1.8Zm-.5,10.1v.2l.5.2h0Zm1.7-.9h0Zm-8.7-18.2-.2-.2h-.1v.2Zm8.7,7v-.2h-.1v.2Zm-.1,12.4h0Zm4.6-21h0Zm-11.5,1.8h0Zm6.6,8.6h0Zm.5,1.5h0Zm.1-.9h0Zm-1.3-2.8h0Zm1.2,7.1h0Zm-.7-2.6h0Z"/><path class="a" d="M61,174.9a2.1,2.1,0,0,0,.4.6,1.9,1.9,0,0,1,.9,1.3c.1.6,0,.8-.6.8l-.9-.2h.9c-.4-.5-.4-.5-1.3,0l-.3-.2-.3-.2-.2.7c-.4-.6-1.1-.9-1.4-1.6s-.7-.1-1,.2.7.3.9,1.2-1-1-1.7-1.3l.7-.5c-1.1-.4-1.2-.4-1.4.5l-.4-.2h-.4l-.8-1.2c.3.1.5.3.8,0l.9-.5h.4l-.2.4-.2.3h.1v-.4l.8.3.4-.5a1.8,1.8,0,0,0,1.5.3l.3.6c.7-.5.2-1.3.6-1.8h.6v-.7a4.1,4.1,0,0,1,0-.6c0-.7-.1-.8-.7-.8H57.8l-.4.3c0-.4.1-.8-.5-.7v.6l-1.9-.2c-.2,0-.5-.2-.5-.4s-.3-.5-.6-.6-.5-.3-.1-.5h0v-1c.2,0,.4,0,.3-.3l-.3-.5.6-.3c.2-.1.4-.2.2-.4h0v-1.6c-.6-.3-.9.1-1.3.3l-.4,1.9a3.7,3.7,0,0,1-.2-1.7,6.4,6.4,0,0,0,.1-2.2,5.4,5.4,0,0,1,0-1c0-.7.1-1.4.1-2.1s.1-.8.1-1.2,0-1.7.1-2.5.1-.7.1-1.1l.2-2a3.1,3.1,0,0,0-.2-1.8,4.3,4.3,0,0,1-2.2.3,1.2,1.2,0,0,0-1.3-.2c-.1.9-.2,1.8-.2,2.7s0,1.3-.1,1.9c-.1,2.9-.5,5.8-.3,8.8a2.2,2.2,0,0,1-.1.3c-.1,1.4-.3,2.8-.3,4.2a21.1,21.1,0,0,0,0,2.5,12.9,12.9,0,0,0,.2,1.4l1.5.2c.3-.5.6-.5,1.3-.3a5.5,5.5,0,0,0,2.6.5v.2l-.2.4,1,.8c.1.5.5.4.8.3l.3.5c.2.5,0,.9-.5.8a1.3,1.3,0,0,1-1.1-.4,5.4,5.4,0,0,0-1.1-.8v.9a1,1,0,0,1-1.1-.3c-.3-.3-.7-.2-1,0a1.6,1.6,0,0,1-2.1-.1,4.2,4.2,0,0,1-1.5-2.2,12.6,12.6,0,0,1-.2-4.4v-3.6a4.7,4.7,0,0,1,.1-1.1,9.8,9.8,0,0,0,.2-2.9c0-.6.1-1.2,0-1.9a11.4,11.4,0,0,1,.1-2c.1-.6.2-1.3.2-1.9a3.5,3.5,0,0,0,.1-.7,30.7,30.7,0,0,1,.4-5.2l1.9-.2v.7c.2,0,.6,0,.7-.1s1.2-.4,1.9-.2a2.2,2.2,0,0,1,.7.5,4.6,4.6,0,0,1,1.5,4.5c-.1,1-.1,2.1-.2,3.1s-.1,1.6-.1,2.3-.1,3-.2,4.5-.2,2-.2,3.2l-.8-.4c0,.1,0,.2,0,.3s.6.5.7,1,.5.3.8.2a3.1,3.1,0,0,1,1.9-.1H58a3.7,3.7,0,0,1,2.1-.2,1.2,1.2,0,0,1,1,.6l1.1,1.7a1.9,1.9,0,0,1,.3,1.5l-.2,1.4-.8-.7h-.1v.6l-.6.2h0Zm-9.4.6.2.5.8-.4v-.2l-1.8-.6c-.3-.1-.5.1-.4.5Zm2.6-19.6.9.8v-.9c0-.3,0-.6,0-.9Zm6.2,17.2.4.7H61c.1-.1.2-.2.1-.3A.7.7,0,0,0,60.3,173.1Zm-.2,2.5c.1-.5.1-.5-.6-.7l.2-.2ZM54.8,162v-.3l-.2-.2-.2.2Zm-.5-1.3h-.2l.2.3h.1Zm-3.2-8.8h.1l-.3-.2h0Zm4.1,1.8h0Zm-.5.3h0Zm-.3.5h0Zm2.1,15.9h0Zm4.8,1.7h0ZM58,175.3h0Zm-8.3-.9h0Z"/><path class="a" d="M39,160.3a.9.9,0,0,1,.5,1c-.1.6,0,1.3,0,1.9A11.3,11.3,0,0,1,39,165c-.1.3-.2.6,0,.9a1.9,1.9,0,0,1,.2,1.1c-.1.8-.2,1.6-.3,2.3s-.1,1.7-.1,2.6,0,2.9,0,4.3a5.9,5.9,0,0,1-.4,2.7.7.7,0,0,0,0,.4l.3,1.7c0,.3.1.6.5.6s1.6.5,2.4.4v1.4a4.3,4.3,0,0,1-1.3-.1,1.3,1.3,0,0,0-1.1,0,3.2,3.2,0,0,1-1.2.1c-.5,0-.8-.2-.7-.7s-.6-.6-.4-1.2a6,6,0,0,0,.2-1.3c.1-.7-.2-1.5.2-2.2s-.1-.3-.1-.4-.2-.3-.1-.4,0-1.6.1-2.3.4-2.8.5-4.2.1-.3,0-.3a3,3,0,0,1-.1-1.8c0-1,.1-1.9.1-2.9s.2-.8.2-1.2,0-1.1,0-1.6-.1-1.9,0-2.8.3-2.1.4-3.1,0-.9.1-1.4h.4a.5.5,0,0,1-.4-.6c.1-1.9.2-3.8.2-5.7s.1-2.6.2-3.9.2-2.1.2-3.1a2.7,2.7,0,0,1,.4-1.7h.7c0,.5,1,.4.6,1h0a1.7,1.7,0,0,1,1.7-.4,2.8,2.8,0,0,0,1.4,0,1.2,1.2,0,0,1,1.2.2c.4.4.8.4,1.1-.1l1,.4-.4,1.1h.4l-.3.3h-.1a31,31,0,0,1-3.4,0,4.1,4.1,0,0,1-1.8-.2c-.2-.1-.7.2-1.2.4v2c-.1.9-.2,1.9-.2,2.8s-.1,1.7-.1,2.5,0,2.7-.1,4.1a28.8,28.8,0,0,1-.1,2.9,8.1,8.1,0,0,1-.7,2.8l-.3,1.3C39.3,161.2,39,160.7,39,160.3Zm-1.1,17.4h0Z"/><path class="a" d="M95.4,166.8l.5.2.4.7.6.6.7-.2c-.1-.4,0-.9-.2-1.2s-.7-.3-1.1-.5a1.5,1.5,0,0,0,.2-1.4l.5-.5h0c-.3-.6-1.1-.7-1.6-1.5v-2.7c.9-.3.9-.2,1.4.7l.4-.2.2.6h.6c-.1,1.5,0,3.1-.2,4.6a24.1,24.1,0,0,0-.1,4.3c.1.9-.3,1.6-.2,2.4a8.9,8.9,0,0,1-.2,2.5,7.6,7.6,0,0,0-.1,2.2,3.4,3.4,0,0,1,0,.5,1.2,1.2,0,0,1-1.9.9c-.1-.1-.2-.3-.3-.5s-.8.5-1.3.5h-1a1.4,1.4,0,0,1-1.3-.7l-.5-.8a3.1,3.1,0,0,0-.9-.9c.1-1.2.1-2.3.2-3.5a10.6,10.6,0,0,1,.2-1.1,1.5,1.5,0,0,0,.1-.5,5.8,5.8,0,0,1,.1-2c.1-1.5,0-2.9,0-4.4s.1-1.4.2-2.2v-1.8c.2.3.4.4.4.5s.2,1.9.2,2.9a7,7,0,0,1-.1.8c-.1,1.5-.2,3.1-.3,4.6s-.1.9-.2,1.3a1.8,1.8,0,0,0-.1.6,7.7,7.7,0,0,1-.1,2.9,4.4,4.4,0,0,0,.1,1c.7.4,1.6-.2,2.2.5s-.2.2-.2.3l.3.5H94a1.5,1.5,0,0,0,0-.5v-.3c.3-.2.8-.3.9-.6a4,4,0,0,0,.2-1.4c.1-1.4.1-2.9.2-4.3s.3-.5.6-.4l.2.2v.3l.2-.3.5-.2c-.5-.2-.5,0-.5.3H96l-.2-.2a1,1,0,0,1-.6-1.1,14.7,14.7,0,0,1,.3-1.6Zm-.4,9.1c.8.4,1,.2,1-.5v-.2a4.6,4.6,0,0,0,0-1,.8.8,0,0,0-.9-.5l.3,1Zm.9-2.9.6-.3c.1-.6-.5-1-.2-1.5l-.5-.2Zm.2,4-1-.3C95.4,176.9,95.6,177.3,96.2,176.9Zm-4.1.2.5-.3v-.2C92.2,176.5,92,176.6,92,177.1ZM96.4,162h.3l.2-.6h-.2Zm.7.7v-.6C96.7,162.3,96.9,162.4,97.1,162.7Zm-2.8,14.8h-.2v-.1Zm2.1-16.6-.2-.2-.2.2v.2Zm-5.3,15.3h0Zm5.4.9h0Z"/><path class="a" d="M103,156.1h.3s0,.1,0,.2v3h-.6l.5,1c-.6,0-1,.4-1.6.1a2.7,2.7,0,0,0-1.1,0H98.6c-.3,0-.3,0-.5.5s-.4-.7-.5-1.2h1l-.6-.5h.5c.1.3.3.6.8.5l.2-1.8-1.2.4-.4-.6c-.5.3-.2.7-.2,1.1H96.5c-.3-.4.2-.6.4-.9H95.6l.2-.6,4.4.2v.6l.6-.2c0-.1,0-.2,0-.2s-.3-1.4-.3-2.2-.2-1.4-1.3-1.5H97.9c-.9.4-1.8-.1-2.7,0s-1.2-.2-1.8-.2H91l-.2-.4h-.2c-.5.7-1.3.6-2,.5H87.4a4.5,4.5,0,0,0-.4,2.2c0,.7.2.9.9.8a7.3,7.3,0,0,1,3,.2l-.3.6h-.5c-.5-.2-.8.1-1,.4l-.6,1.1,1.1.5v.2H88.1c-.2-.2,0-.7-.5-.6s-.4-.2-.4-.3-.3-.9-.7-1.2a.9.9,0,0,1-.2-.6q.1-1.8.2-3.5a2.5,2.5,0,0,1,.3-.6c.8.3,1.5-.3,2.3-.3s.7-.1,1.1.3.5-.4.7-.3,1.9-.1,2.9.3l1,.5.3-.4h.2l.5.3c.3-.5.9,0,1.2-.3h.2a4,4,0,0,0,1.8.3,4.3,4.3,0,0,1,1.9.1c.5.2.9.8,1.3,1.2l.3.4a1.2,1.2,0,0,1,.4,1.4l-.7-.2v.6Zm-1.3,3-1.9-.3c.1.7.9.4,1.1.9Zm-13.4-.9h.3c0-.2.1-.4.1-.5s-.4-.3-.6,0Zm13.9.8c.5-.1.5-.3.4-.6h-.2Zm-.6-2.3h-.1v.3h.1Zm.2-1.2v.2h.1v-.2Zm-.6.7h0Z"/><path class="a" d="M81,152h.3c.7.4.9,1.1,1.3,1.7h-.8l.8,1.1h-.7c-.3.6.5.6.5,1s.5.6.9.8l-.2,1.3L80.3,156c.1-.7.3-1.3.3-1.9s-.1-.8-.8-.9h-2l-1.3-.2h-.2c-.9.4-1.8-.1-2.8,0v-.6h-.6c0,.6-.5.5-.8.4s-.8.2-1.1-.2h-.1c-.7.5-1.5.2-2.3.2s-.6.1-.6.5a69.5,69.5,0,0,0-.4,7.3c0,1.3-.2,2.6-.3,3.9s-.1,1-.1,1.5l-.2,4c0,.5,0,1,0,1.5s-.1.6-.1,1a1.7,1.7,0,0,1-.4-1.5q0-1.1,0-2.2c0-.8.1-1.7.1-2.5s.1-1.7.1-2.5-.1-1.8-.1-2.6a1.8,1.8,0,0,1,.1-.4,1.6,1.6,0,0,0,.1-.6,2.8,2.8,0,0,1,.3-2c.1-.2,0-.5,0-.8a25.1,25.1,0,0,1,.4-5.8l.2-.3.8.3.3-.3a3.3,3.3,0,0,1,1.5-.2c1.1.3,2.2-.1,3.2.3s.5-.1.7-.1h1.1a5.5,5.5,0,0,0,1.5,0h.6c.7.7,1.7.3,2.5.6h.3c.2-.3.4-.5.8-.2s-.3.3.1.5Zm1.5,4.6c-.1.3-.1.4-.1.4l.2.2v-.6Z"/><path class="a" d="M72.5,155.7l.4-.3h2c.2.4.2.8-.3,1s-.3-.2-.4-.1-.1-.6-.6-.6l-.5,1.1h.7v.8a1,1,0,0,0,.3-1.2h.4l.6.4.2,1.6-.7-.2v-.7h-.2a3.7,3.7,0,0,0-.6,2.8c0,.2.3.5.5.7l.3.4-1.1.3-1.7.3c-.4,0-.7-.4-.7-1a13.7,13.7,0,0,1-.1-1.6c.1-1.1.2-2.2.3-3.3a1.9,1.9,0,0,1,.2-.5h.8Zm-.1,1.5.4.2c-.2-.5-.2-.5-.4-.2h0Zm-.9,3.5h.2l.3-.4-.2-.2Zm2.1-1.2-.2-.2h-.2l.2.2Z"/><path class="a" d="M79.9,162.3l.8,1.2h.2c0,1-.1,2-.1,3.1a.8.8,0,0,1-1,.7l-.9-.4c-.2.7.5.5.7.6s0,.9-.7.8l-1-.2a1.9,1.9,0,0,1-1.1.2c-.6,0-1.2-.3-1.8-.2a.7.7,0,0,1-.8-.6l1-.2v-1c.2.4.3.6.7.6s1.1,0,1.3.8h.6l-.8-1.2a5.6,5.6,0,0,1-.3-.8h0c.5.1,1-.2,1.5.1l.4-.4.4.3c0-.4.3-.7-.2-1.1s-.1-1.4.4-1.6l.5.3.3-.8Zm-1.5,5h-.1l.3.3h.1Zm.9-2.4h0Zm-.7,1.4h0Zm-2.1,1.1h0Z"/><path class="a" d="M47.4,143c-.4-.6.2-1,.4-1.6s.5-.1.7-.2-.3.7.1,1.2l.3-.5.3-.5a5.9,5.9,0,0,0,3.5-.6c.3,0,.6.2,1,.1s.5.4.9.5.7,0,.9.2.3.5.5.7-1.2.5-1.6.9-.5-.8-1.1-.5v.5c-.4-.4-.7-.3-1.1-.2a5.4,5.4,0,0,1-3.2.1l.2-.4c-.5-.2-.8-.1-1,.3h-.7Zm2.6,0h-.4v.2H50Zm3.7-1h0Zm-1.1.4h0Z"/><path class="a" d="M68.2,175.5l.8.2-.3-.6c.3,0,.7.2.9-.2s.9-.2,1.3.1.4.2.6-.1a.5.5,0,0,1,.9,0c.2.2.5.7.4.8s-.1,1.1.3,1.5,0,.2,0,.4-.9-1.5-1.8-1.6-.2,1.1.8,1.4-.3.8-1,.7h-1a9.2,9.2,0,0,1-1.9-.1,1.9,1.9,0,0,1-1-.9c-.3-.5,0-.8.5-1.1l.3-.3Zm2.3.7-.2.2v.2h.2Z"/><path class="a" d="M61.5,142.1c.1-.1.2-.4.3-.4l.9.2v1.3h.5v-1.8l1,.4.9-.2h0a.8.8,0,0,0,1,0h0c.2.2.4.6.7.7s.9.4,1.3.4a1.4,1.4,0,0,1,1.2,1l.2.2a1.4,1.4,0,0,1-1.3.2c-.5-.2-1.2,0-1.6-.5h-.3c-.5.4-.8.1-1-.5l-.5.6-1-.8c-.4.2-.2.4.1.8H62.2l-.9-.8v-.7h.2c-.1.2-.1.5.2.5s.2-.2.3-.4Z"/><path class="a" d="M80,174.8c0-.6,0-1.3,0-1.9a.8.8,0,0,0-.8-1c.2-.3.4-.6.5-.6s.9,0,1.1.2,2.2,2.5,1.5,4.4-.2.9-.4,1.4l.4.5-.2.2h-.4a1.7,1.7,0,0,1,.1-1.8l-.7-.6-.2.5a.7.7,0,0,1-.1-.9,1.3,1.3,0,0,0,0-1.3l-.5-.3a2.8,2.8,0,0,0,.1.6c.2.4,0,.6-.4.7Zm1.1-1.6v.3h.3Z"/><path class="a" d="M75.2,177.3h.6l-.5-.3c.2-.3.4-.6.8-.2h.3v-.3h0c.5-.2.4.4.9.5H78v.7l1.7-.4.4.5c.4-.6-.4-.6-.3-1.1s.6-.1.8.4a3.2,3.2,0,0,0,.4.8c.2.2.4.5.2.8l-4.7-.2c-.3,0-.8.1-1-.3a2,2,0,0,1-.1-.6Zm2.6.4h-.1Zm-1.6-.6h0Z"/><path class="a" d="M59.7,143.5l-.3-.3a.5.5,0,0,0-.5.1l.4.4H59c-.9-.2-1.9.1-2.9-.4l.5-.3-.3-.6h.5v-.5h.2l.5.8.7-1.2c.4,1.3.4,1.3,1.3,1.4a4.3,4.3,0,0,1,.5-.8.6.6,0,0,1,.8,0l.3-.2c.3-.1.4,0,.4.3h0l-.5,1H59.6v.3Zm-2.8-.4c.2.3.4.3.6.2s0-.1.1-.3Z"/><path class="a" d="M77.3,171.8l-2.5-.2-.9-.4h0c.3-.5.7-.5,1.2-.3a1.2,1.2,0,0,0,1,0h.6c.5.1.6.1.5.8Z"/><path class="a" d="M73.4,171.6c-.5.4-1.1.1-1.5-.1s-.3-.5.2-.9l.9.5.3-.6.7.9h0c-.1.6-.1.6-.5.3l-.2-.2h0Z"/><path class="a" d="M79.1,157.5c-.6.3-.6.3-.4,1.1h-.4c-.7,0-.8-.2-.5-.8a3.2,3.2,0,0,0,.1-1l.7-.3a1.4,1.4,0,0,0,.1.5Z"/><path class="a" d="M67.5,175.6h-1c-.2-.4-.5-.8-.1-1.4s-.1-.5-.1-.9.5,0,.5.3a1.4,1.4,0,0,0,.6,1.3C67.5,174.8,67.5,175.2,67.5,175.6Z"/><path class="a" d="M76.7,156.9h-.1c-.4-.3-1.1-.3-1.3-1s1.1-.6,1.8-.2h0c-.3.3-.2.5.2.6h0l-.6.6h0Z"/><path class="a" d="M71.6,165.1v-.3h1.7c.1,0,.2.2.2.4l-1.1.6-.7-.7Z"/><path class="a" d="M76.6,161.5a1.7,1.7,0,0,1,1.7.1c.1.1.1.3.2.5H78c-.5-.2-1.1-.2-1.4-.7Z"/><path class="a" d="M95.5,166.8c-.4-.5,0-1.1-.1-1.6a2,2,0,0,1,.1-.7c.7.3.3.8.4,1.2s-.2.8-.5,1.1Z"/><path class="a" d="M75.2,175.8h-1l-1.1-.3c0-.4.1-.7.5-.5l.7.2h.4l.6.7Z"/><path class="a" d="M77.1,157.5c.2.7-.3,1.1-.7,1.4s-.3-1,.4-1.3h.3Z"/><path class="a" d="M91.8,158.8c-.2-.5,0-1-.5-1.1a.5.5,0,0,1,0-.4l.4-.3a.5.5,0,0,1,.3.3A12.4,12.4,0,0,1,91.8,158.8Z"/><path class="a" d="M75.2,177.3l-.7.6-.3-.5-.7.2.4-.9c.2.6.8.4,1.2.6Z"/><path class="a" d="M117,175.9a1,1,0,0,1,.1-1.7C117.4,174.9,116.7,175.4,117,175.9Z"/><path class="a" d="M80.4,158l.6.7H79.7v-.2Z"/><path class="a" d="M82.6,155.4l.2-1.2C83.2,154.7,83.2,155,82.6,155.4Z"/><path class="a" d="M77.9,175.6l1.2-.2C79,176.1,79,176.1,77.9,175.6Z"/><path class="a" d="M76.6,161.5l-.5.2h-.2v-.4c.1-.3.5-.2.8.2Z"/><path class="a" d="M91.2,160.7l.6-.7C91.9,160.8,91.9,160.8,91.2,160.7Z"/><path class="a" d="M82.1,158.9V158l.8.4Z"/><path class="a" d="M76.4,176.4l-.5-1c.2-.1.4,0,.6.2s0,.6-.2.8Z"/><path class="a" d="M71.6,165.1v.8c-.4-.1-.4-.3-.3-.5s.3-.2.5-.2Z"/><path class="a" d="M78.5,171.2v.6l-.8-.7Z"/><path class="a" d="M79,156.2h-.5a1.3,1.3,0,0,1,0-.3H79Z"/><path class="a" d="M80.3,168.2l-.3-.5.7-.3Z"/><path class="a" d="M73.1,170v-.7a.5.5,0,0,1,.2.8Z"/><path class="a" d="M79.9,162.2c-.5.3-.5.3-.6-.3l.6.4Z"/><path class="a" d="M77.1,155.8h.5l-.3.4h0l-.2-.6Z"/><path class="a" d="M95.7,158.9v-.5h.2v.5Z"/><path class="a" d="M95.9,164h-.3v-.2l.2-.3Z"/><path class="a" d="M97.3,159.9h0Z"/><path class="a" d="M73.6,166.7v.3h-.1l-.2-.2Z"/><path class="a" d="M71.5,171.7c-.4,0-.6-.1-.5-.6h0l.5.6Z"/><path class="a" d="M71.1,168h.1V168Z"/><path class="a" d="M61.2,143.7v-.2h-.1Z"/><path class="a" d="M75.8,157.9v-.4h.1v.4Z"/><path class="a" d="M91.9,159.4h-.3v-.2h.1Z"/><path class="a" d="M91,159.3h-.1v-.2H91Z"/><path class="a" d="M114.7,175.1l.2.3h-.3Z"/><path class="a" d="M77.1,157.5v-.3h.1l-.2.2Z"/><path class="a" d="M79.4,158.2h0Z"/><path class="a" d="M81.7,158.4h0Z"/><path class="a" d="M75.4,165.7h0Z"/><path class="a" d="M75.8,166.2h0Z"/><path class="a" d="M71.1,168.9h-.1Z"/><path class="a" d="M71,171.1l-.2-.3H71v.3Z"/><path class="a" d="M77.3,171.8h0Z"/><path class="a" d="M80,175.3c-.3-.2-.2-.4,0-.6h0v.6Z"/><path class="a" d="M80,175.3l.2.2H80v-.3Z"/><path class="a" d="M71.9,176.8h0Z"/><path class="a" d="M54.1,176.8H54Z"/><path class="a" d="M51.4,150.8h0Z"/><path class="a" d="M79.8,156h0Z"/><path class="a" d="M79.1,161.7h0Z"/><path class="a" d="M130.2,145.1h0Z"/><polygon class="a" points="75.3 175 75.2 175.1 75.2 175 75.3 175"/><path class="a" d="M115,167.4h0Z"/><path class="a" d="M96.3,164.5h0Z"/><path class="a" d="M73.7,166h0Z"/><path class="a" d="M71.4,169.6h0Z"/><path class="a" d="M74.3,175.1c.1-.3.3-.3.4,0h-.4Z"/><path class="a" d="M68.2,175.4v0Z"/><path class="a" d="M76.9,175.6h0Z"/><path class="a" d="M46.4,140.7h0Z"/><path class="a" d="M57.2,141.8h0Z"/><polygon class="a" points="78.2 158.9 78.2 158.9 78.2 158.9 78.2 158.9"/><path class="a" d="M76.6,165.4h0Z"/><polygon class="a" points="97 166.8 97.1 166.8 97.1 166.9 97 166.8"/><path class="a" d="M75.8,166.2h0Z"/><polygon class="a" points="73.2 167.7 73.2 167.7 73.2 167.7 73.2 167.7"/><polygon class="a" points="73.2 167.7 73.1 167.8 73.2 167.7 73.2 167.7"/><path class="a" d="M71.2,168h0Z"/><polygon class="a" points="71.5 171.7 71.6 171.7 71.5 171.7 71.5 171.7"/><polygon class="a" points="115.1 177 115.1 176.9 115.1 177 115.1 177"/><path class="a" d="M75.2,175.8h0Z"/><path class="a" d="M72.9,176.1h0Z"/><polygon class="a" points="47.4 143 47.4 143 47.4 143 47.4 143"/><polygon class="a" points="59.6 143.5 59.6 143.5 59.6 143.5 59.6 143.5"/><polygon class="a" points="44.3 181.6 44.3 181.5 44.3 181.5 44.3 181.6"/><path class="a" d="M65.2,141.8h0Z"/><polygon class="a" points="66.1 141.8 66.1 141.8 66.1 141.8 66.1 141.8"/><polygon class="a" points="58.8 141.9 58.9 141.9 58.8 141.9 58.8 141.9"/><path class="a" d="M76.6,142.8h0Z"/><path class="a" d="M130.3,165.6c0-.9,0-1.8,0-2.7s.1-.2.1-.3.3-2.4.2-3.7.1-.5.5-.6a7.2,7.2,0,0,1,2.5.1h.8c1.8-.4,2.8.7,3.4,2.2a5.6,5.6,0,0,1,.2,1.2.8.8,0,0,1,0,.4,5.2,5.2,0,0,1-1.9,3.1,2.1,2.1,0,0,1-.9.4A29.1,29.1,0,0,1,130.3,165.6Zm1.3-4.1h0Zm2.2-1.2h0Zm3.3,1.1h-3.5a.4.4,0,0,0-.5.4c-.1,1.1-.5,2.2-.1,3.3a3.2,3.2,0,0,0,3.7-1.1A2.8,2.8,0,0,0,137.1,161.4Zm-4.7,2.4v-1l-.5-.3.5-.4c-.8-.3-.8.5-1.2.7S131.9,163.6,132.4,163.8Zm.3-5-1.4.2c.2.4.4.8.8.8S132.5,159.2,132.7,158.8Zm3.2,1.9c0-.5-.2-.6-.8-.6Zm-2.8-.4h.1v-.4h-.1Zm-.8.2h0Zm-1-.1h0Zm1,1.4h0Zm-1.5,2.1h0Z"/><path class="a" d="M53,167.9l-.5.6c-.3-.2-.5-.4-.3-.6Z"/><path class="a" d="M53.7,166.4l-.2.7C53.3,166.8,53.2,166.6,53.7,166.4Z"/><path class="a" d="M54.4,166.9c-.1.2-.2.5-.7.1h.7Z"/><path class="a" d="M53.6,167.6v.8C53.4,168.1,53.2,167.8,53.6,167.6Z"/><path class="a" d="M53.2,170.1h0Z"/><path class="a" d="M131.9,163.3h0Z"/><path class="a" d="M131.9,159.4h0Z"/><path class="a" d="M184.7,388a1.1,1.1,0,0,1-1.3-.3l-.6-.5c-.7-.5-1-.5-1.7,0l-1.8,1.2-.9-.6c-1.2-.7-1.7-.7-2.8.2a1.4,1.4,0,0,1-1.8.2l-.9-.5a1.4,1.4,0,0,0-1.7.3c-1.2,1.1-1.4,1.1-2.6.1a1.6,1.6,0,0,0-1.3-.4,1.4,1.4,0,0,0-.8.3,2,2,0,0,1-2.3.5l-2.2-.8-1.6,1.5-2.1-1.1c-.8-.4-1-.3-1.6.3a5.4,5.4,0,0,1-1.4.8c-.1.1-.4-.1-.6-.2l-.6-.5c-1.3-.9-2.2-.8-3.1.6l-.2.2c-1.2-.1-1.7-.5-1.9-1.5a2.8,2.8,0,0,0-2.2,1,4.2,4.2,0,0,1-1,.6l-1.4-.9a2,2,0,0,0-2.9.5.6.6,0,0,1-.9.2h-.1c-1-.8-2-1.6-3.5-1.1.3.6-.2.8-.6,1.1a.8.8,0,0,1-1.1-.2,11.2,11.2,0,0,0-1.3-1.1l-.9.5-1.1.9a1.4,1.4,0,0,1-1.7-.1c-.5-.3-.5-.7-.3-1.5s-.6.3-.8.2-.3-.4-.5-.6.1,1.4-.9,1.7l-.6-.2-.6.7c-.7,0-1-.4-1.4-.8a1.1,1.1,0,0,0-1.5-.1c-.2.1-.5.3-.6.2s-1.1-.1-1.6.1a.9.9,0,0,1-1.1-.4l-.3-.2-1.2-.4a2.5,2.5,0,0,0-.2.7c0,.6-.3,1-.8.8s-.6.1-.8.3-.8-1.6-2-1.3v-.3l.8-.7c1,.7,1,.7,1.9,0l.6-.4a1.6,1.6,0,0,1,2.3.1c.4.3.7.8,1.3.8l1.1-.9a1.8,1.8,0,0,1,2.4.1l.5.4a.9.9,0,0,0,1.3-.1c.6-.7,1.5-.6,2.3-.8s.6.2.8.3,1,.9,2,.1l.4-.3a1.5,1.5,0,0,1,2.2,0l.5.4c.7.5.8.5,1.5,0l.4-.3c1.1-.8,1.3-.8,2.5,0s1.2.7,2.3,0l1-.6a1.1,1.1,0,0,1,1.2.1l1.7,1.1,1-.8a2,2,0,0,1,2.7-.1l.5.4a.8.8,0,0,0,1.3-.1l.3-.2c1.2-.9,1.7-1,2.9-.1s1.1.8,2.2-.1,1.5-.9,2.6,0,1,.7,1.9.1,1.4-1.3,3.3.1a.8.8,0,0,0,1.1,0l.8-.6a1.5,1.5,0,0,1,2.2-.1c1.4,1,1.2.9,2.7-.2a1.5,1.5,0,0,1,2.2.1c.9.8,1.6.8,2.5-.1s1.1-.9,2-.1l.5.4c.7.5.9.4,1.6-.1l.6-.5c.7-.6,1.4-.4,2.1-.1s.6-.7.2-1.2a2.3,2.3,0,0,1-.2-2.5l.2-.4c.6-1,.6-1-.2-1.8a1.9,1.9,0,0,1-.3-2.2c.3-.7.9-1.4.7-2.3a1.7,1.7,0,0,1-.9-2.3,5.9,5.9,0,0,1,.5-1c.4-.8.4-.9-.2-1.5a2.6,2.6,0,0,1-.2-2.8l.8-1.5a2.2,2.2,0,0,1-1.1-2.9c.2-.7.6-1.3.9-1.9l-.8-.9-.6-1.1,1.4-2.8-1.6-1.5,1-2.6a7.6,7.6,0,0,0,.2-1.2c-1.2-.7-1.4-1.6-.7-3.1l.5-1.2-.9-1.1a1.9,1.9,0,0,1,.1-2.2l.5-.9a.9.9,0,0,0-.1-1.1,2.6,2.6,0,0,1-.4-3.2c.5-.9.5-1.1-.2-1.9a1.8,1.8,0,0,1-.3-2.5,1.6,1.6,0,0,0,.1-2,.9.9,0,0,1,.2-1.3c.2-.2.7-.3.9-.2s1.4,1,1.2,2.1a4.8,4.8,0,0,0,.1,1.1l-.5.8a1.2,1.2,0,0,0,0,1.3,2.8,2.8,0,0,1,.2,3.2,1.1,1.1,0,0,0,.1,1.4c1,.9.7,2,.2,2.9a2.1,2.1,0,0,0,.1,2.4,2.4,2.4,0,0,1,0,2.9,1.4,1.4,0,0,0,0,1.8,2.3,2.3,0,0,1,.3,2.1,16.3,16.3,0,0,1-.8,1.8l.3.6a2.8,2.8,0,0,1,.1,3.8c-.3.4-.4.7,0,1.1a3.8,3.8,0,0,1,.8,2.7l-1.2,1.3c.2,1,1.4,1.5,1.2,2.6s-.5,1.8-.8,2.8l.5.7a2.2,2.2,0,0,1-.2,3,1.2,1.2,0,0,0,.1,1.7,2.2,2.2,0,0,1,.6,2,5.8,5.8,0,0,1-.7,1.3c-.4.8-.4.8.2,1.5l.6.8a1,1,0,0,1,0,1.4c-1.3,1.1-.9,2.3-.4,3.5v.3l-.5.6Zm-60.7,0h0Z"/><path class="a" d="M109.2,339.6h-1.6a.8.8,0,0,1-.9-.7,1,1,0,0,1,.6-1.2,1.8,1.8,0,0,1,2,.6l.3-.7,1.3.3h1.3a1.1,1.1,0,0,1,.7.5c.8,1.8,1.5,3.5,2.2,5.3s1.2,3.3,1.8,5a1.4,1.4,0,0,1,0,1c-.3.4-.7.2-1.1,0h-.5l-.3,1.1.2.2c.4-.8,1-.5,1.6-.4l1.1.3,2.3-6.8,1.7-5.3c.4-1.1.6-1.3,1.7-1.3H127a1.7,1.7,0,0,1,1.8,1.3c-.8,0-1.3.6-2.1.6s-.7.4-.6,1a21.5,21.5,0,0,1,.1,5.1c-.1,1.3,0,2.7.1,4s0,2.4,0,3.6.2,1.1.9,1.2h.4c1,0,1.2.3.9,1.3s-.1.5-.2.8h-3l-2.6-.3c-.4.6-1.2.4-1.9.1s.2-1.3,1.1-1.6,1-.4,1.1-1.2a18,18,0,0,1,.2-3.1c.3-1.2-.2-2.3-.1-3.5s0-2,.1-3a1.7,1.7,0,0,0-.4-1.4c-.7.4-.7,1.1-.9,1.8l-1.3,4-.9,2.7c-.5,1.4-.9,2.9-1.4,4.3s-.4,1.4-1.4,1.7-.4-.6-.5-.8a7.4,7.4,0,0,0-.6-1.9c-.3-.9-.4-1.8-.7-2.8a2.7,2.7,0,0,0-.5-.7,1.2,1.2,0,0,1-.2-1.4,5,5,0,0,1-.8-1c-.3-.7-.5-1.5-.8-2.2s-.7-2.2-1.1-3.3-.5-.5-.7-.7H111c0,.3,0,.5,0,.8s0,3,.1,4.5-.6.5-.1,1,.1.8.1,1.2,0,.8,0,1.2.1.8.1,1.2a6.3,6.3,0,0,1-.2,1,4.1,4.1,0,0,1,.4.8,1.2,1.2,0,0,0,1.1.9c.8.1,1.1.4,1,.9a1.4,1.4,0,0,1-1.3.8,8.5,8.5,0,0,0-3.5.2h-.3c-.7.1-1-.1-1.1-.6a1.1,1.1,0,0,1,.9-1.4,2.1,2.1,0,0,0,1.5-2.4c-.1-1.2-.1-2.4-.1-3.5,0-2.7,0-5.5-.1-8.2A4.3,4.3,0,0,0,109.2,339.6Zm1.1-1.1H110l-.3,1.1h1Z"/><path class="a" d="M134.5,379v-.6a3.4,3.4,0,0,1-1.1.5,4.1,4.1,0,0,1-1.3-.3c0-.4,0-.8,0-1.2a15.1,15.1,0,0,0,0-3.4,31.4,31.4,0,0,1,.1-3.7c0-1.2-.1-2.3-.2-3.5s.1-1.2,1.1-1.2h1.2c.9-.1,1.2.1,1.4,1a9.4,9.4,0,0,1,0,1.2c.9.6,1.1.6,1.7-.3a8.1,8.1,0,0,1,1.4-1.6,3.1,3.1,0,0,1,2.6-.9,7.4,7.4,0,0,1,3.3.9c.7.5,1.5.8,1.4,1.9s.3.3.4.6a5.5,5.5,0,0,1,.6,3.6c-.1.9-.2,1.8-.3,2.6a2,2,0,0,1-1.6,2l-.7-1-.6.2,1.3,1.3c-.6.2-1.5,0-1.4,1s-1.5-.3-1.8.5a5.9,5.9,0,0,1-4-1.5c-.5-.6-.5-1.6-1.2-2.3s-.2-.9-.3-1.4l-.4-2.3c0-.2-.1-.4,0-.5s-.3-1.4-.3-2h-.2c0,.3-.1.5-.1.8s-.2,2.9-.2,4.3.1,2.1.2,3.2a5.9,5.9,0,0,1,0,1.1C135.5,378.6,135.1,378.8,134.5,379Zm8.1-11c-.4,0-.8-.1-1,0a8.6,8.6,0,0,0-1.7,1.1c-.2.2-.2.6-.2.9s0,2.1,0,3.1a3.8,3.8,0,0,0,.3,1.3,2,2,0,0,0,2,1,1.9,1.9,0,0,0,1.6-1.3l.4-1.1a11.4,11.4,0,0,1-.3-1.5c0-.5.2-.9.1-1.4a8.4,8.4,0,0,0-.5-1.5h-1Zm-5.4,2h0Z"/><path class="a" d="M90.3,347.9l2.5,4.3a16.3,16.3,0,0,0,1.4,1.8,1.4,1.4,0,0,0,1.3.5h.7c.6,0,1,.3,1,.8a1.1,1.1,0,0,1-1,1.2h-3l-.4-.3c-.2.1-.4.4-.7.4s-.4-.3-.5-.6a3.7,3.7,0,0,0-.7-1.1c-.7-.7-.7-1.7-1.1-2.6l-1.1-.7.9-.2c-1.6-.4-1.9-1.8-2.5-3l1.2-.5c-.7-.2-.7-.2-1.8.2l-1.9.7c.3.2.7.4.8.7a3.2,3.2,0,0,1,.1,1.1c.1,1,.1,2.1.2,3.1s.3,1.4,1.4,1.6a1.3,1.3,0,0,1,1.1,1c-.2.5-.4.8-.9.8L81,357h-.2c-.4-1.1-.4-1.2.6-1.6s1.2-.6,1.2-1.7-.1-2.5,0-3.8-.1-2.9-.1-4.4,0-1.6,0-2.4a5,5,0,0,1,.5-1.4,8.9,8.9,0,0,0-.5-1.1l-.6-.5-1.2-.4a.8.8,0,0,1-.4-.6c0-.1.3-.3.5-.4l2.9-.3h3.8a8.4,8.4,0,0,1,3.3.3l2.8,1.2a2.1,2.1,0,0,1,.7,1.1c1.1,2.8.3,4.9-2.3,6.3l-.6.2Zm1.4-4.7a1.6,1.6,0,0,0,0-.4c-.4-1.2-.6-2.5-2.1-2.9a9.2,9.2,0,0,0-2.7-.2,1.7,1.7,0,0,0-1.6,2.3,1.7,1.7,0,0,1,.1.6,15.9,15.9,0,0,0,.2,3.6c0,.7.3.9,1,.8l2.3-.4A3.3,3.3,0,0,0,91.7,343.1Z"/><path class="a" d="M130.6,355.8c-.2-1-.2-1.2.4-1.4s1.9-1.6,2.2-2.8.5-1.9.7-2.9l1.2-3.7,2-6.7c.3-1.1,2.1-1.8,3-1.2a3.2,3.2,0,0,1,.9,1.5c.4,1.1.7,2.3,1.1,3.5s.5,1.7.8,2.5l1.8,4.2c.3.6.8,1.2.4,2l1.2,2.8c.1.1.4.2.6.2s1.4.4,1.1,2a2.3,2.3,0,0,1-1.8,0,3.1,3.1,0,0,0-2.2.1,4.8,4.8,0,0,1-2.6.1c-.4-.1-.8-.2-.7-.7s.1-1,.7-1.1,1.1.1,1.3-.5-.1-.9-.2-1.3a5.2,5.2,0,0,0-.9-2.2,2.1,2.1,0,0,0-1.9-.7,1.7,1.7,0,0,1-1.9-.1c-.9.3-2.1.1-2.6,1a4.2,4.2,0,0,0-.5,3.2c.1.2.4.4.7.5h.8a1,1,0,0,1,.7,1.2c-.1.5-.3.8-.9.8l-5-.2Zm8.1-15.6.3-.2.2-.2.7.8.2-1.4h-.2l-.6.7-.2.2-.3.2h0Zm-.5.9a7.5,7.5,0,0,0-.7,2,10.8,10.8,0,0,1-.9,3.4,1.5,1.5,0,0,0,.1,1.4h3.6c.2,0,.4-.3.4-.5a2.4,2.4,0,0,0-.2-.9c-.4-1.4-.8-2.9-1.3-4.2S139.2,341,138.2,341.1Z"/><path class="a" d="M64.6,354.3h.8a3.1,3.1,0,0,1-1.7-3.1,8,8,0,0,0-3.3-.7,5.9,5.9,0,0,0-1.9.1,5.8,5.8,0,0,0-1.3.6c-.2,1-.4,1.7-.6,2.5s-.1,1.6,1.1,1.8,1.1.5,1,1.5l-1.3.2h-2c-.5,0-.9,0-1-.5l-2,.8-.5-.9a.7.7,0,0,1,.5-1.1l.8-.2a1.9,1.9,0,0,0,1.5-1.5c.6-2,1.4-3.9,1.8-5.9s1.5-4.3,2.1-6.5l.3-1.4a1.8,1.8,0,0,1,1.4-1.5l1.1-.3a.8.8,0,0,1,1.1.7c.4,1.2.8,2.4,1.2,3.7s1.6,3.4,1.8,5.2a6.2,6.2,0,0,0,.4,1.1c.6,1.7,1.3,3.3,1.8,5a1.5,1.5,0,0,0,1.6,1.3c.8,0,.9.3.6,1.1a6.7,6.7,0,0,0-.1.7l-4.6.2c-.6,0-1.1-.3-1.7.1s-.8-.2-.9-.8a.7.7,0,0,1,.5-.9h.3C64.2,355.4,64.8,355.3,64.6,354.3Zm-4.1-11.9a.8.8,0,0,0-.9.7c-.2.7-.3,1.4-.5,2s-.4,2.4-1.5,3.1c.6,1.3,1.7,1.3,2.7,1.2h1.4c.3,0,.7,0,.8-.2a1.6,1.6,0,0,0,.1-1,29.4,29.4,0,0,1-1.2-3.4C61.3,343.8,60.7,343.1,60.5,342.3Z"/><path class="a" d="M151.3,371.6c0,1.5,0,2.9,0,4.4s0,.9,0,1.3,0,1.4-1.4,1.1v-.6h-.7c-.7,0-1-.2-1-.9s.1-2.7.1-4,0-1.1-.1-1.6-.2-3.3-.4-4.9a1.1,1.1,0,0,1,1.1-1.3h2.2a1.3,1.3,0,0,1,1.4.9l1.9,4a4.6,4.6,0,0,1,.2,1.1l.8-.2c-.1-1.5.3-2.9-.3-4.4s.1-1.6,1.2-1.6h1.2c.7,0,1,.2,1,.9s-.1,2.5-.1,3.8.1,2.5.1,3.8,0,1.3,0,2a10.2,10.2,0,0,0,.2,1.4.9.9,0,0,1-.6,1.1,4.8,4.8,0,0,1-2.4.2.7.7,0,0,1-.5-.4l-.8-1.8-.5-.8-.3-.7a3.9,3.9,0,0,0-.5-1.3,2.4,2.4,0,0,1-.5-.8A1.2,1.2,0,0,0,151.3,371.6Z"/><path class="a" d="M49.1,379.6c.8-.6,1.6,0,2.3-.1l.2.5a.6.6,0,0,0,.9.4c.4-.2.3-.6.1-.9s-.9-1.8-2.2-1.4l-.3-1.5a.7.7,0,0,0-1,.6,8.8,8.8,0,0,1-.6,1.6,3.5,3.5,0,0,1-.8,1c-.2.1-.5.1-1,.1l.6-1.1a22.7,22.7,0,0,0,1-2.4c.3-.9.2-.9-.6-1.5s-.7-.4-.7-.9.2-1,.9-.9h.5l.4-1,.2-.8c-.2-.7-.5-1.4-.7-2.1s.4-.7.9-.6l1.1.3v-1.5c.1-1.1.8-1.5,1.7-.9a3.7,3.7,0,0,1,.6.7c-.4.5-1,.9-1,1.6a2.5,2.5,0,0,1,1.9.7l.8.3c1.2.2,1.6-.2,1.4-1.4s-.2-.8-.2-1.2.2-.8.7-.8l1.1.2c.8.2,1,.7.5,1.4a1.4,1.4,0,0,0-.4,1.1c0,.6.4.9,1,.7a3.4,3.4,0,0,0,1-.7c.6-.5.7-.5,1.3,0a1.3,1.3,0,0,1,.6,1.4l-.3.3a3.8,3.8,0,0,1-1.5,0,10.8,10.8,0,0,0-3.5-.3H54.6a1,1,0,0,0-1.3.7l-.2.5-.2.5c1,1,1.2.9,1.9-.8h.5a1.6,1.6,0,0,0,2.1,0,.9.9,0,0,1,1.2.2l.7.8-.5.7a1.3,1.3,0,0,0-.2,1,11.7,11.7,0,0,1,0,2.2c0,.6,0,1.3,0,1.9a1,1,0,0,0,.8,1.1,2,2,0,0,0,.7-1.5c0-.5.1-.9.7-1s.4.5.4.8.1.9.2,1.4a2.5,2.5,0,0,1,.1,1c-.1.4-.7.1-.9.2s-2.1.2-3.3.2a14,14,0,0,1-.3-2.1c0-1.4.2-2.7.2-4.1s0-.9,0-1.3l-1.4-.3c-.1.3-.2.5-.2.7s-.2,3-.5,4.5a2.4,2.4,0,0,1-1.5,1.7c-.5.2-.7.8-1.2.9s-.9.4-1.4-.2a4.8,4.8,0,0,0-1.3-.8Zm4.3-1.2h.3a3.8,3.8,0,0,0,.6-2,9.2,9.2,0,0,1,.3-2.1c.1-.4-.1-.6-.5-.7s-1.2.3-1.2,1.2a14,14,0,0,0,0,2.1A8.7,8.7,0,0,0,53.4,378.4ZM52,374.2l-1,.7.4.8C52.3,375.5,52,374.9,52,374.2Zm-1.2-3.8.6,1.2h.3l.2-1.1h-1Zm-.7,1.8c-1,0-1,0-.9,1.2Z"/><path class="a" d="M157.9,337.2a1.2,1.2,0,0,1,1.3-.6,20.5,20.5,0,0,0,5.4-.4c1-.2,1.4.4,1.9,1.2l-.8.7-.5-.4c-.8.6-.6.9-1.6,0,.1,1,.2,2,.2,3.1s0,1.7.1,2.5-.3,3.4.1,5.2a8.9,8.9,0,0,1-.1,2.1,13.2,13.2,0,0,0,.1,1.7c.1.9.3,1,1.1,1a7.1,7.1,0,0,0,6.3-3.3l.7-.9a.8.8,0,0,1,1.1-.1,1.3,1.3,0,0,1,.4,1.1c-.4,1.5-.9,3-1.3,4.6l-.2.3-2.5.2c-.6,0-1.3.4-1.8-.3s-.5.1-.6.2a1,1,0,0,1-1.1.4,44,44,0,0,0-5.5.2h-1a.8.8,0,0,1-.8-.8c-.1-.5,0-.9.6-1l.7-.3c.2-.1.5-.3.6-.5s.8-1.8.3-2.8a2.7,2.7,0,0,1-.2-1.1c0-1.2,0-2.4-.1-3.5s0-.4-.1-.5a1.8,1.8,0,0,1-.3-1.7c.3-1.5-.1-2.9-.2-4.4s-.5-.7-.8-.7S158.4,337.6,157.9,337.2Z"/><path class="a" d="M100.7,378.4c-.6.8-1.1,1.3-2,.9a3.3,3.3,0,0,0-1.3,0c-.8,0-1.1-.1-1.2-.8s-.8-2.3-.9-3.5-.8-.8-1.2-1.1-.7,0-1,0c.1,1.6.2,3,.2,4.4a3.4,3.4,0,0,1-.4,1.1H90.9c-.7-.1-1-.4-.9-1a15.6,15.6,0,0,0,.1-3.5,2,2,0,0,1,.9-1.6h-.8l.5-1s0-.1,0-.1a.7.7,0,0,1-.4-.7c0-1.4-.1-2.8-.2-4.2a.9.9,0,0,1,1-1h5a3.7,3.7,0,0,1,3.6,5.2,4.5,4.5,0,0,1-1.3,1.3c-.7.7-.8.9-.2,1.8a10.1,10.1,0,0,1,.5,1.2l.3.5Zm-7.2-9.5a8.1,8.1,0,0,0-.4,1.5c0,.3.1.8.3.8a2.6,2.6,0,0,0,2,0,1.2,1.2,0,0,0,.8-1.3C95.7,369,94.6,369.3,93.6,368.9Zm3.9,8.2c-.1-.6,0-1.1-.6-1.2S96.7,376.8,97.5,377.1Z"/><path class="a" d="M176.5,372.6l.3.5c.2.4,0,.7-.4.9l-1.1.4-2.3-.2c-.1.1-.2.3-.4.4s-.6.6-.5,1.1,0,.9,0,1.3.1.8.8.8a5.4,5.4,0,0,0,3.4-.6c.7-.5,1.3-.2,2,1a3.7,3.7,0,0,1-2.8.9,18.3,18.3,0,0,0-1.8.2h-3.8a6.7,6.7,0,0,1-1.4-.4,2.9,2.9,0,0,1-2.5.3,3.4,3.4,0,0,0-1.2.1c-.2-.3-.7-.7-.4-1.2s.9-.5,1.5-.4a24.9,24.9,0,0,0,4.5.2v-3.3c-1.5-.5-3.1.1-4.6-.2,0-.9.1-1.1.9-1.1h7.8l.7-.3v-.2l-.9-.3-2.3-.4a.7.7,0,0,1-.6-.7c-.1-.8-.1-1.6-.2-2.4s-1,.1-1.3.6a16.8,16.8,0,0,1-2,2.3,7.6,7.6,0,0,1-2.7,1.3c-.2.1-.5-.1-.8-.1s.8-1.1,1.4-1.3a3.6,3.6,0,0,0,2-2.8c-1.1-.3-1.1-.3-1.5.6l-.8,1.8c-1.1-.3-1.3-.5-1.1-1.5a13.5,13.5,0,0,1,.4-2.2c.3-.9.8-1,1.5-.5a3.1,3.1,0,0,0,2.5.2c.3-.1.4-.4.3-.8a.9.9,0,0,1,.6-1.2l.9-.2c1.4-.1,2,.2,1.5,1.7s0,.1,0,.3a4.5,4.5,0,0,0,2.7,0l1.8-.3a1,1,0,0,1,1.2,1.1c0,1.2,0,2.4,0,3.6a.9.9,0,0,1-.3.6Zm-2.2-4.8-1.4.8a2.9,2.9,0,0,0,.2,2.2H175A3.7,3.7,0,0,0,174.3,367.8Z"/><path class="a" d="M139.7,329.9l.9-.2.8-.6,1.5-.5.4.5c1,1,1.3,1,2.3.1a2.4,2.4,0,0,1,2.2-.5c.5.2.9.7,1.5,1.2l2.8-2,1.4,1.5c.4.4.6.5,1.1.1l2.4-1.1h.3c1.7,1.4,1.7,1.4,3.4.1l.9-.6h.3l.5.8a1.4,1.4,0,0,0,2.2.3l1.3-1a.8.8,0,0,1,1.2.2c1.3,1.4,1.4,1.3,2.8.2l1-.8a2.4,2.4,0,0,1,1.6,1c.7.7.8.7,1.6.2l.9-.8a1.1,1.1,0,0,1,1.8-.1c1.3,1.3,2.4,1.2,3.4-.5h1.6a.8.8,0,0,1,1,.6l.4,1a.8.8,0,0,1-.8,1.1h-.5a2.9,2.9,0,0,0-2.2.3,2.7,2.7,0,0,1-2.7.2,1.9,1.9,0,0,0-1.9,0,2.9,2.9,0,0,1-2.5.1,2,2,0,0,0-2.2.2,1.8,1.8,0,0,1-2.6-.1,1.4,1.4,0,0,0-1.7-.2l-.7.3a2,2,0,0,1-2.4-.2,1.4,1.4,0,0,0-1.9.1,2.1,2.1,0,0,1-2.6.1,1.7,1.7,0,0,0-1.8-.1,3.1,3.1,0,0,1-3.1,0,1.9,1.9,0,0,0-2.1.1l-.6.3a1.4,1.4,0,0,1-1.9-.1,1.8,1.8,0,0,0-2.2-.1c-1.3.7-2,.7-3.6-.5a2.9,2.9,0,0,0-1.4.7c-1,1-1.7.8-2.6-.3l.5-.9ZM182,328h-1.3C181.1,328.3,181.5,328.6,182,328Z"/><path class="a" d="M111,366l2.9-.2c1.2-.1,1.4.1,1.7,1.3l1.2,4.3c.3,1,.5,2,.8,2.9s.7,2.1,1.1,3.1l.2.5c.1.8-.1,1.1-.9,1.1h-.7c-1.5,0-1.7-.1-2-1.6v-.4c.6-.5,1.1-1,.4-1.8h-1.1v.6c-.5-.5-.9-.9-1.5-.3s-.9,0-1.3,0-.6.4-.6.9a11.2,11.2,0,0,1-.2,2.3c0,.2-.4.4-.7.4h-2.2c-.7,0-1.1-.5-.8-1.2a45,45,0,0,0,2-5.8Zm.3,4.4c1,.3,1,.3.9,1.3s-.1.9-.1,1.3h2.2a11.2,11.2,0,0,1-.6-1.6c-.2-.9-.3-1.1-1.3-1Z"/><path class="a" d="M96.3,388.5l-1.9.3.2.8a4.7,4.7,0,0,1-1.2.4,1.5,1.5,0,0,1-1.4-1c-.3-.8-.9-.7-1.4-.9s-.6.3-.8.5l-.7.9-.9.6c-1.1-.1-.7-1.5-1.5-1.7a7.6,7.6,0,0,1-2.8,1.6,1.3,1.3,0,0,1-1.4-.1,1.6,1.6,0,0,0-1-1.9c-1,.2-1.4,1.1-2.1,1.8s-1.9.7-2-1l-1,.4-.9-.2c-.4,1.5-1.5,1.2-2.6.7v-.8h-.3c-.2,0-.5.2-.7.1s-1.1.2-1.3.5-.5,1-1,.9a2.3,2.3,0,0,1-1.5-.7c-.3-.4-.7-.4-1-.4l-1.4-.3c-.3.4-.1,1.2-1,1.5s-1.4-.3-1.2-1.5H61.4a2,2,0,0,1,1-1.5c.6,0,.9.4,1.3.7s1.1.6,1.9,0a6.1,6.1,0,0,1,1.5-.8,1,1,0,0,1,.7.1l1,.7a.9.9,0,0,0,1.3,0c1.8-1.3,1.6-1.4,3.7.1l.4.2,1.4-1a1.5,1.5,0,0,1,2,0c1.2.9,1.2.9,2.4-.1s1.1-.6,2-.1l.6.4a1,1,0,0,0,1.3,0l.4-.3c1.3-.9,1.6-.8,2.9,0l1.2.6,1-.9a1.7,1.7,0,0,1,2.3,0l.5.4a.9.9,0,0,0,1.1.1l1.1-.6c1-.6,1.2-.6,2.2.1l.4.4a.8.8,0,0,0,1.2.1l1.5-.9a1.1,1.1,0,0,1,1.5.2l.5.5a.8.8,0,0,0,1.2.1l1-.6a1.7,1.7,0,0,1,2.3.1,1.4,1.4,0,0,0,2.2,0l.6-.3a1.4,1.4,0,0,1,2,.3l1.1.9,2.3-1.3c.5-.3.9-.1,1.2.4s-1.4.8-1.6,1.7-.8.7-1.3.5a2.4,2.4,0,0,1-1.4-1.3l-.6.2c-.7,0-1.4,0-1.7.8a.6.6,0,0,1-.6.3c-.6-.2-1.3.1-1.8-.5a2.3,2.3,0,0,0-2.2-.8l.6.4-1.6.8-.5-.4c-.8.5-1,.4-1.6-.7H99.9c-.5.1-.5.3-.3.8A2.4,2.4,0,0,1,96.3,388.5Zm-11.3,0c-.5.2-1,0-1.3.5,1.2.4,1.3.3,2.1-.8l-.8-.3Z"/><path class="a" d="M95,329.3l2.3,1.8,1.8-1.6c.3-.3.6-.4.8-.1s1.4.7,2,1.3.6,0,.8-.2l1.7-1.6a1.3,1.3,0,0,1,1.2.8c.2.5,1,.7,1.6,1.1l.8-.8c1.1-.9,1.3-.9,2.5-.2h.1c1.5.9,1.5.9,2.7-.5a1.1,1.1,0,0,1,1.6-.1l1.7,1.3,2.4-2,1.7,1.4c.6.5.8.5,1.3,0l1.1-1.3c.4-.5.9-.6,1.1,0a4.4,4.4,0,0,0,1.9,1.6c1.2-.2,1.4-1.4,2.3-2.1l1.5,1.4c.7.8,1,.8,1.7,0a3.4,3.4,0,0,1,1.9-1.1c.8.5,1.1,1.5,2,1.5l2.1-1.8,1.3,1.2c-.3.8-1.1,1.1-1.7,1.5l-.9.4c-1.1.5-1.9.1-2.2-1.2l-1.7,1a2.7,2.7,0,0,1-2.8-.2c-.1-.1,0-.3-.1-.6l-2,.7-.6.4c-.5.5-.7.5-1.3.1l-.8-.6a1.7,1.7,0,0,0-1.6,0l-.5.3a1.9,1.9,0,0,1-2.7.1,2.4,2.4,0,0,0-2.1-.4l-.2.3c-.5,1.1-1,1.2-1.9.5l-.5-.5c-.8-.8-1.3-.8-2.1.1s-.5.5-.8.6a2.8,2.8,0,0,1-1.3-.2c-.4-.2-1-.2-1.2-.8s-.4-.4-.8-.1-.8.1-1,.3-.3.7-.6,1-.7.4-1.1,0l-.7-.7c-1.2-.8-1.4-.6-2.2.1l-1.3,1-1-.8c-1.3-1-1.9-.9-3,.2s-.8.6-1.3.2a4,4,0,0,1-1.7-1.7c-1.2.3-1.3.4-1.9,1.9a1.5,1.5,0,0,1-1.8-.5,6.5,6.5,0,0,0-1.5-1.1,1.2,1.2,0,0,1-.7-1.2h1.3a2.7,2.7,0,0,0,2.3,1.4Z"/><path class="a" d="M74.5,373.5c.2.8-.6.7-.9,1s-1.1.5-1.6.5l-1.7-.7-.6,1c.1,1.3.1,2.5.2,3.7s-.6.8-1.1.6l-1-.6-.9.5c-.4-.4-.3-.9-.3-1.3a17.7,17.7,0,0,1,0-2.6,28.7,28.7,0,0,0-.1-3.6c0-1.2.1-2.4.1-3.7a3.2,3.2,0,0,0-.1-.6,1,1,0,0,1,1.1-1.3l4.8.3h.1a3.1,3.1,0,0,1,3.1,1.6A3.6,3.6,0,0,1,76,372l-.3,1.1Zm-5-3.5h0l.2,2.7h-.6c-.1.5-.2.9-.2,1.3l.4.3v-.9l.7.2-.4-1,1.6-.3a1.6,1.6,0,0,0,1.5-1,.9.9,0,0,0,0-.7,1.8,1.8,0,0,0-2.2-.8Z"/><path class="a" d="M156.5,337.2a1.3,1.3,0,0,1-.9,1.3c-.7.3-.8.7-.7,1.4a10.5,10.5,0,0,1-.1,2.4c-.1,1,.3,1.9.3,2.8s.1,3.9.1,5.9.1,1.1.1,1.7a.9.9,0,0,0,1,.9,1.1,1.1,0,0,1,1.1.6.9.9,0,0,1-.8,1.4h-2.5c-.8.1-1.7,0-2.3.8l-1.8-.7c-.4-1.2-.3-1.4.8-1.7s1.4-.8,1.2-1.8a27.3,27.3,0,0,1-.2-5.2,28.2,28.2,0,0,0-.3-3.4c0-.2-.1-.5-.1-.7s0-2.2.1-3.5L150,339c-.7-.2-1-.5-1-1.1a.7.7,0,0,1,.6-.8h6.9Z"/><path class="a" d="M120.3,367.6h-.2c-.4-.2-.8-.4-.7-1a1.2,1.2,0,0,1,1.1-.9l2.1.2c.4.1.6.4.7.8l1.4,5.3a9.2,9.2,0,0,0,.5,1.1l.5-.9a13.6,13.6,0,0,0,.8-1.8c.2-.7.2-1.4.4-2.1s.3-1.2.5-1.8a.7.7,0,0,1,.8-.6h1.6c.7,0,1.2.5.9,1.1s-.8,2.1-1.3,3.2a11.7,11.7,0,0,1-1.1,1.6l.5.3a13.1,13.1,0,0,1-.5,1.9,29.2,29.2,0,0,0-1.3,4.6,1.2,1.2,0,0,1-.9.9,3.9,3.9,0,0,1-1.8,0c-.9-.2-1.3-1-1.3-2.1s.1-.3.1-.4l-1.7-4.4a4.5,4.5,0,0,1-.1-.8,3.2,3.2,0,0,0-.1-.7,8.4,8.4,0,0,1-.6-1.1A14.7,14.7,0,0,1,120.3,367.6Z"/><path class="a" d="M40.9,381.8c-.4-.3-.3-.6,0-.9s.5-1.8.1-2.8-.5-.4-.7-.6.8-1.9,1.2-3l-.7-.8a1.7,1.7,0,0,1-.4-2.2,7.6,7.6,0,0,0,.5-1,2.7,2.7,0,0,0,.1-1.1.9.9,0,0,0-.6-.8c-.7-.3-.7-1.3-.2-2.1l.4-.5.3-.5c-.3-.6-.7-1.2-1-1.8a1.2,1.2,0,0,1,.3-1.5l.5-.6a1.2,1.2,0,0,0,0-1.5l-.6-.8a.9.9,0,0,1,0-1.2,19.9,19.9,0,0,0,1.2-1.9l-.4-1.6-1.2-.7.7-1.3c.4-.6.8-1.2.3-2l-.5-.6a1.5,1.5,0,0,1-.2-2.3c.9-.9.9-1,.2-2.1l-.8-1.4.9-1.5c.5-.8.6-1.2-.1-1.8a1.7,1.7,0,0,1-.2-2.4l.3-.6a1.4,1.4,0,0,0-.3-2.2h-.1a1.6,1.6,0,0,1,.5-2.6.8.8,0,0,1,.7.1.7.7,0,0,1,.1.7c-.6.7-.3,1.2.2,1.8s.7,2.1-.7,3a5.9,5.9,0,0,0,.6,1.4,2.6,2.6,0,0,1,0,3.6l-.4.6a3.5,3.5,0,0,1,.6.7,11.5,11.5,0,0,1,.6,1.5c.2.6-.2,1-.6,1.4a1,1,0,0,0-.1,1.5,3.1,3.1,0,0,1,.7,2,1.4,1.4,0,0,1-.3,1c-.7.9-.7,1.3,0,2.2a2.5,2.5,0,0,1,.4,2.1,1.1,1.1,0,0,1-.3.6c-.6.6-.7.9-.3,1.6l.6,1a1.5,1.5,0,0,1-.1,1.9,1.7,1.7,0,0,0-.5,1.7,1.4,1.4,0,0,0,.3.6,1.3,1.3,0,0,1,.7,1.2,11.5,11.5,0,0,1-.4,1.6,1.7,1.7,0,0,1-.4.6.7.7,0,0,0,0,1l.5.6a1.6,1.6,0,0,1,0,2.2c-.8,1.2-.8,1.2,0,2.3a2.4,2.4,0,0,1-.2,2.7l-.7.2c.4.7.8,1.3,1,2a4.9,4.9,0,0,1,.4,1.5,1.3,1.3,0,0,1-1.2,1.3c-.3.1-.8-.2-.8.5Z"/><path class="a" d="M73.4,340H71.8c-.6,0-.9-.3-.9-.7a.9.9,0,0,1,.9-.9h6.1c.4,0,.8,0,.9.5a.9.9,0,0,1-.6,1l-1.1.5a1.3,1.3,0,0,0-.6,1.8,5.8,5.8,0,0,1,.3,1.4c.1,1.9.2,3.9.2,5.8s0,2.4.1,3.6a3,3,0,0,1-.7,1.9l.7-.4a1.3,1.3,0,0,0,1.4.8c.5-.1.8.3.8.9s-.2,1.1-.8,1.1H76.7l-4.2.2c-.4,0-.8,0-.9-.4a1.1,1.1,0,0,1,.5-1.4l1-.3c.9-.3,1.1-.8,1.1-1.7s-.2-3.5-.2-5.2-.1-3.2-.2-4.8-.1-1.5-.1-2.2Z"/><path class="a" d="M82.9,331.3c1.3-.7,1.5-.9,1.7-1.6s1.4.7,2.1.9l.5.3a1,1,0,0,0,1.3,0,2.1,2.1,0,0,1,.8-.2l.2.2-1.4,2-2.2-1.4c-.7-.5-1-.5-1.6.2l-.6.6-.6.4c-.6-.5-1.6-.3-1.8-1.3s-2.1.6-3,1.4-1.2-.2-1.5-.9a1.1,1.1,0,0,0-1.5-.2l-.9.7a1.2,1.2,0,0,1-2-.2l-.5-.6a.6.6,0,0,0-.9-.1l-1.6,1.1c-.4.3-.7.4-1.1,0a5.5,5.5,0,0,0-1.3-.8,1.6,1.6,0,0,0-1.8.4c-.9,1-1,1-2,.1l-1.2-.7c-1.1.2-1.8,1.2-2.8,1.6L57.8,332a1.6,1.6,0,0,0-2.1.4c-.4.5-.4.5-1.5.7A2.3,2.3,0,0,0,51,332v.5a.9.9,0,0,1-1.3.5l-.3-.2a3.4,3.4,0,0,0-2.6-.9c-.3.3-.6.7-1,.9a1.7,1.7,0,0,1-1.9-.4l-1.8-1.3v.8l-1.3.2-.8-1,2.5-.8,1.7,1.3a9,9,0,0,0,1.6.6c-.6-1.1.4-1.3.4-2.2l1.7.8,1.2.8a.9.9,0,0,0,1.2-.2l1.4-1.4,2.6,1.8c.5-.8,1.7-.7,1.8-1.9l1.3.8,1.1.7c.8.5.8.5,1.5-.2a1.7,1.7,0,0,1,2.2-.4l1,.6.8.4,1.9-1.8,2,1.2c.8.5.7.4,1.4-.1a11.7,11.7,0,0,1,1.8-1l.8.5,1.3.7a.8.8,0,0,0,1-.1l.4-.3c1.2-.8,1.5-.9,2.7-.1a1.8,1.8,0,0,0,2.4-.1,1.8,1.8,0,0,1,2.4.1Z"/><path class="a" d="M84.2,372.2l.3-1.4c-.5,0-.5,0-.7.7s-.2-.5-.3-.6l-.7-.2c-.5.8-1.4.7-2.1,1.2v.2c.5.1,1,.3.6,1l-1.2-.4-.3,1-.8-.2a17,17,0,0,1,.6-1.8,24.5,24.5,0,0,0,1.2-4.6c.2-.7.6-1.1,1.3-.9a4.6,4.6,0,0,0,1.9,0c1.1,0,1.4.4,1.6,1.5s.7,2.7,1,4.1l1.2,4.6.3.7.3.6c.5,1,.1,1.6-1,1.6H87l-1.6-.3c-.1-.5-.1-1-.2-1.5l.2-.2.5.3c.5-.8,1.1.1,1.6.1s-.2-.8-1.2-.9v-1.1l-4-.2a1.2,1.2,0,0,0-1.2.5,1.2,1.2,0,0,1-1.2.6h0c.6.4,1,.8.8,1.6s-.6,1.3-1.7,1.1H77.5a1.1,1.1,0,0,1-.2-1.5l.9-1.5c.1-.1.2-.3.2-.4s.4-1.3.6-1.9h1.7l.9.8h.2l-.3-1.3h.7c1.2.4,1.6.3,2-1h0c.6-.1.7.4.8,1,.9-1.6.9-1.6.4-2.4s-.3,1.3-1.1,1.2Zm2.6,3.2-.4-1.6H84.8c-.2,0-.3.2-.5.3s.2.4.3.4.3.1.3.4.3.5.5.5Z"/><path class="a" d="M41.4,388.4h1.6l1.1.3,1.2.9,1.4-1.1c.9-.7,1.3-.7,2.2,0l.6.5a1,1,0,0,0,1.4-.1l.6-.5a1.6,1.6,0,0,1,2.4,0l1.1,1,1.3-1a1.7,1.7,0,0,1,2.4-.3l.3.3c.8.6.8.6,1.9.4l-1.3,1.9c-.6-.2-1.3-.3-1.3-1.1s-1.4.2-1.8-.6c-.1,1.6-1.6,1.1-2.2,1.8a2.8,2.8,0,0,0-3.7-.9,1.9,1.9,0,0,1-1.5.1,3.6,3.6,0,0,0-3.6.6,2,2,0,0,1-.9.2l-3.2-2.2Z"/><path class="a" d="M40.9,381.8c1.3.2,1.6,1.4,2.1,2.3s-.1.7-.2,1.1a6.2,6.2,0,0,0-.5,1.2,3.9,3.9,0,0,1-.8,2h0a5.6,5.6,0,0,1-.8-1.7,2.8,2.8,0,0,1,.5-1.6,1.6,1.6,0,0,0-.2-2.2c-.4-.4-.1-.7-.1-1Z"/><path class="a" d="M139.7,329.9h0Z"/><path class="a" d="M84.2,372.4v-.2h.1v.2Z"/></svg>